FFFForward_monospace_numbers.sfdir
StartChar: exclam
Encoding: 33 33 4
Width: 375
GlyphClass: 1
Flags: W
LayerCount: 2
Fore
SplineSet
250 372 m 1,0,-1
 -7 372 l 1,1,-1
 -7 1254 l 1,2,-1
 250 1254 l 1,3,-1
 250 372 l 1,0,-1
250 -4 m 1,4,-1
 -7 -4 l 1,5,-1
 -7 254 l 1,6,-1
 250 254 l 1,7,-1
 250 -4 l 1,4,-1
EndSplineSet
Validated: 1
EndChar
StartChar: numbersign
Encoding: 35 35 6
Width: 1000
GlyphClass: 1
Flags: W
LayerCount: 2
Fore
SplineSet
375 504 m 1,0,-1
 493 504 l 1,1,-1
 493 622 l 1,2,-1
 375 622 l 1,3,-1
 375 504 l 1,0,-1
118 247 m 1,4,-1
 -7 247 l 1,5,-1
 -7 504 l 1,6,-1
 118 504 l 1,7,-1
 118 622 l 1,8,-1
 -7 622 l 1,9,-1
 -7 879 l 1,10,-1
 118 879 l 1,11,-1
 118 1129 l 1,12,-1
 375 1129 l 1,13,-1
 375 879 l 1,14,-1
 493 879 l 1,15,-1
 493 1129 l 1,16,-1
 750 1129 l 1,17,-1
 750 879 l 1,18,-1
 875 879 l 1,19,-1
 875 622 l 1,20,-1
 750 622 l 1,21,-1
 750 504 l 1,22,-1
 875 504 l 1,23,-1
 875 247 l 1,24,-1
 750 247 l 1,25,-1
 750 -4 l 1,26,-1
 493 -4 l 1,27,-1
 493 247 l 1,28,-1
 375 247 l 1,29,-1
 375 -4 l 1,30,-1
 118 -4 l 1,31,-1
 118 247 l 1,4,-1
EndSplineSet
Validated: 1
EndChar
StartChar: dollar
Encoding: 36 36 7
Width: 875
GlyphClass: 1
Flags: W
LayerCount: 2
Fore
SplineSet
500 -129 m 1,0,-1
 243 -129 l 1,1,-1
 243 122 l 1,2,-1
 -7 122 l 1,3,-1
 -7 379 l 1,4,-1
 493 379 l 1,5,-1
 493 497 l 1,6,-1
 -7 497 l 1,7,-1
 -7 1129 l 1,8,-1
 243 1129 l 1,9,-1
 243 1379 l 1,10,-1
 500 1379 l 1,11,-1
 500 1129 l 1,12,-1
 750 1129 l 1,13,-1
 750 872 l 1,14,-1
 250 872 l 1,15,-1
 250 754 l 1,16,-1
 750 754 l 1,17,-1
 750 122 l 1,18,-1
 500 122 l 1,19,-1
 500 -129 l 1,0,-1
EndSplineSet
Validated: 1
EndChar
StartChar: percent
Encoding: 37 37 8
Width: 1125
GlyphClass: 1
Flags: W
LayerCount: 2
Fore
SplineSet
125 375 m 1,0,-1
 243 375 l 1,1,-1
 243 504 l 1,2,-1
 250 504 l 1,3,-1
 250 625 l 1,4,-1
 368 625 l 1,5,-1
 368 754 l 1,6,-1
 375 754 l 1,7,-1
 375 872 l 1,8,-1
 -7 872 l 1,9,-1
 -7 1254 l 1,10,-1
 375 1254 l 1,11,-1
 375 872 l 1,12,-1
 493 872 l 1,13,-1
 493 1004 l 1,14,-1
 500 1004 l 1,15,-1
 500 1125 l 1,16,-1
 618 1125 l 1,17,-1
 618 1254 l 1,18,-1
 875 1254 l 1,19,-1
 875 997 l 1,20,-1
 750 997 l 1,21,-1
 750 747 l 1,22,-1
 625 747 l 1,23,-1
 625 497 l 1,24,-1
 500 497 l 1,25,-1
 500 247 l 1,26,-1
 375 247 l 1,27,-1
 375 -4 l 1,28,-1
 118 -4 l 1,29,-1
 118 254 l 1,30,-1
 125 254 l 1,31,-1
 125 375 l 1,0,-1
618 -4 m 1,32,-1
 618 379 l 1,33,-1
 1000 379 l 1,34,-1
 1000 -4 l 1,35,-1
 618 -4 l 1,32,-1
EndSplineSet
Validated: 5
EndChar
StartChar: ampersand
Encoding: 38 38 9
Width: 1125
GlyphClass: 1
Flags: W
LayerCount: 2
Fore
SplineSet
250 754 m 1,0,-1
 368 754 l 1,1,-1
 368 997 l 1,2,-1
 250 997 l 1,3,-1
 250 754 l 1,0,-1
250 497 m 1,4,-1
 250 254 l 1,5,-1
 368 254 l 1,6,-1
 368 497 l 1,7,-1
 250 497 l 1,4,-1
-7 -4 m 1,8,-1
 -7 1254 l 1,9,-1
 625 1254 l 1,10,-1
 625 504 l 1,11,-1
 743 504 l 1,12,-1
 743 629 l 1,13,-1
 1000 629 l 1,14,-1
 1000 372 l 1,15,-1
 875 372 l 1,16,-1
 875 254 l 1,17,-1
 1000 254 l 1,18,-1
 1000 -4 l 1,19,-1
 743 -4 l 1,20,-1
 743 122 l 1,21,-1
 625 122 l 1,22,-1
 625 -4 l 1,23,-1
 -7 -4 l 1,8,-1
EndSplineSet
Validated: 1
EndChar
StartChar: parenright
Encoding: 41 41 12
Width: 500
GlyphClass: 1
Flags: W
LayerCount: 2
Fore
SplineSet
-7 -129 m 1,0,-1
 250 -129 l 1,1,-1
 250 -4 l 1,2,-1
 375 -4 l 1,3,-1
 375 1254 l 1,4,-1
 250 1254 l 1,5,-1
 250 1379 l 1,6,-1
 -7 1379 l 1,7,-1
 -7 1122 l 1,8,-1
 118 1122 l 1,9,-1
 118 129 l 1,10,-1
 -7 129 l 1,11,-1
 -7 -129 l 1,0,-1
EndSplineSet
Validated: 9
EndChar
StartChar: asterisk
Encoding: 42 42 13
Width: 1000
GlyphClass: 1
Flags: W
LayerCount: 2
Fore
SplineSet
375 367 m 1,0,-1
 118 367 l 1,1,-1
 118 499 l 1,2,-1
 243 499 l 1,3,-1
 243 617 l 1,4,-1
 -7 617 l 1,5,-1
 -7 749 l 1,6,-1
 243 749 l 1,7,-1
 243 867 l 1,8,-1
 118 867 l 1,9,-1
 118 999 l 1,10,-1
 375 999 l 1,11,-1
 375 874 l 1,12,-1
 493 874 l 1,13,-1
 493 999 l 1,14,-1
 750 999 l 1,15,-1
 750 867 l 1,16,-1
 625 867 l 1,17,-1
 625 749 l 1,18,-1
 875 749 l 1,19,-1
 875 617 l 1,20,-1
 625 617 l 1,21,-1
 625 499 l 1,22,-1
 750 499 l 1,23,-1
 750 367 l 1,24,-1
 493 367 l 1,25,-1
 493 492 l 1,26,-1
 375 492 l 1,27,-1
 375 367 l 1,0,-1
EndSplineSet
Validated: 1
EndChar
StartChar: plus
Encoding: 43 43 14
Width: 875
GlyphClass: 1
Flags: W
LayerCount: 2
Fore
SplineSet
243 372 m 1,0,-1
 -7 372 l 1,1,-1
 -7 629 l 1,2,-1
 243 629 l 1,3,-1
 243 1004 l 1,4,-1
 500 1004 l 1,5,-1
 500 629 l 1,6,-1
 750 629 l 1,7,-1
 750 372 l 1,8,-1
 500 372 l 1,9,-1
 500 -4 l 1,10,-1
 243 -4 l 1,11,-1
 243 372 l 1,0,-1
EndSplineSet
Validated: 1
EndChar
StartChar: hyphen
Encoding: 45 45 16
AltUni2: 002010.ffffffff.0 002010.ffffffff.0
Width: 750
GlyphClass: 1
Flags: W
LayerCount: 2
Fore
SplineSet
625 367 m 1,0,-1
 -7 367 l 1,1,-1
 -7 624 l 1,2,-1
 625 624 l 1,3,-1
 625 367 l 1,0,-1
EndSplineSet
Validated: 1
EndChar
StartChar: period
Encoding: 46 46 17
Width: 375
GlyphClass: 1
Flags: W
LayerCount: 2
Fore
SplineSet
250 -4 m 1,0,-1
 -7 -4 l 1,1,-1
 -7 254 l 1,2,-1
 250 254 l 1,3,-1
 250 -4 l 1,0,-1
EndSplineSet
Validated: 1
EndChar
StartChar: slash
Encoding: 47 47 18
Width: 875
GlyphClass: 1
Flags: W
LayerCount: 2
Fore
SplineSet
250 -4 m 1,0,-1
 -7 -4 l 1,1,-1
 -7 379 l 1,2,-1
 118 379 l 1,3,-1
 118 629 l 1,4,-1
 243 629 l 1,5,-1
 243 879 l 1,6,-1
 368 879 l 1,7,-1
 368 1129 l 1,8,-1
 493 1129 l 1,9,-1
 493 1254 l 1,10,-1
 750 1254 l 1,11,-1
 750 997 l 1,12,-1
 625 997 l 1,13,-1
 625 747 l 1,14,-1
 500 747 l 1,15,-1
 500 497 l 1,16,-1
 375 497 l 1,17,-1
 375 247 l 1,18,-1
 250 247 l 1,19,-1
 250 -4 l 1,0,-1
EndSplineSet
Validated: 1
EndChar
StartChar: zero
Encoding: 48 48 19
Width: 750
GlyphClass: 1
Flags: W
LayerCount: 2
Fore
SplineSet
250 254 m 1,0,-1
 368 254 l 1,1,-1
 368 997 l 1,2,-1
 250 997 l 1,3,-1
 250 254 l 1,0,-1
-7 -4 m 1,4,-1
 -7 1254 l 1,5,-1
 625 1254 l 1,6,-1
 625 -4 l 1,7,-1
 -7 -4 l 1,4,-1
EndSplineSet
Validated: 1
EndChar
StartChar: one
Encoding: 49 49 20
Width: 750
GlyphClass: 1
Flags: W
LayerCount: 2
Fore
SplineSet
629 -4 m 1,0,-1
 372 -4 l 1,1,-1
 372 997 l 1,2,-1
 247 997 l 1,3,-1
 247 1254 l 1,4,-1
 629 1254 l 1,5,-1
 629 -4 l 1,0,-1
EndSplineSet
Validated: 1
EndChar
StartChar: three
Encoding: 51 51 22
Width: 750
GlyphClass: 1
Flags: W
LayerCount: 2
Fore
SplineSet
-7 -4 m 1,0,-1
 -7 254 l 1,1,-1
 368 254 l 1,2,-1
 368 497 l 1,3,-1
 -7 497 l 1,4,-1
 -7 754 l 1,5,-1
 368 754 l 1,6,-1
 368 997 l 1,7,-1
 -7 997 l 1,8,-1
 -7 1254 l 1,9,-1
 625 1254 l 1,10,-1
 625 -4 l 1,11,-1
 -7 -4 l 1,0,-1
EndSplineSet
Validated: 1
EndChar
StartChar: four
Encoding: 52 52 23
Width: 750
GlyphClass: 1
Flags: W
LayerCount: 2
Fore
SplineSet
368 497 m 1,0,-1
 -7 497 l 1,1,-1
 -7 1254 l 1,2,-1
 250 1254 l 1,3,-1
 250 754 l 1,4,-1
 368 754 l 1,5,-1
 368 1254 l 1,6,-1
 625 1254 l 1,7,-1
 625 -4 l 1,8,-1
 368 -4 l 1,9,-1
 368 497 l 1,0,-1
EndSplineSet
Validated: 1
EndChar
StartChar: five
Encoding: 53 53 24
Width: 750
GlyphClass: 1
Flags: W
LayerCount: 2
Fore
SplineSet
625 -4 m 1,0,-1
 -7 -4 l 1,1,-1
 -7 254 l 1,2,-1
 368 254 l 1,3,-1
 368 497 l 1,4,-1
 -7 497 l 1,5,-1
 -7 1254 l 1,6,-1
 625 1254 l 1,7,-1
 625 997 l 1,8,-1
 250 997 l 1,9,-1
 250 754 l 1,10,-1
 625 754 l 1,11,-1
 625 -4 l 1,0,-1
EndSplineSet
Validated: 1
EndChar
StartChar: six
Encoding: 54 54 25
Width: 750
GlyphClass: 1
Flags: W
LayerCount: 2
Fore
SplineSet
250 254 m 1,0,-1
 368 254 l 1,1,-1
 368 497 l 1,2,-1
 250 497 l 1,3,-1
 250 254 l 1,0,-1
-7 -4 m 1,4,-1
 -7 1254 l 1,5,-1
 625 1254 l 1,6,-1
 625 997 l 1,7,-1
 250 997 l 1,8,-1
 250 754 l 1,9,-1
 625 754 l 1,10,-1
 625 -4 l 1,11,-1
 -7 -4 l 1,4,-1
EndSplineSet
Validated: 1
EndChar
StartChar: seven
Encoding: 55 55 26
Width: 750
GlyphClass: 1
Flags: W
LayerCount: 2
Fore
SplineSet
625 -4 m 1,0,-1
 368 -4 l 1,1,-1
 368 997 l 1,2,-1
 -7 997 l 1,3,-1
 -7 1254 l 1,4,-1
 625 1254 l 1,5,-1
 625 -4 l 1,0,-1
EndSplineSet
Validated: 1
EndChar
StartChar: eight
Encoding: 56 56 27
Width: 750
GlyphClass: 1
Flags: W
LayerCount: 2
Fore
SplineSet
-7 -4 m 1,0,-1
 -7 1254 l 1,1,-1
 625 1254 l 1,2,-1
 625 -4 l 1,3,-1
 -7 -4 l 1,0,-1
368 500 m 1,4,-1
 250 500 l 1,5,-1
 250 254 l 1,6,-1
 368 254 l 1,7,-1
 368 500 l 1,4,-1
250 750 m 1,8,-1
 368 750 l 1,9,-1
 368 997 l 1,10,-1
 250 997 l 1,11,-1
 250 750 l 1,8,-1
EndSplineSet
Validated: 1
EndChar
StartChar: nine
Encoding: 57 57 28
Width: 750
GlyphClass: 1
Flags: W
LayerCount: 2
Fore
SplineSet
250 754 m 1,0,-1
 368 754 l 1,1,-1
 368 997 l 1,2,-1
 250 997 l 1,3,-1
 250 754 l 1,0,-1
-7 -4 m 1,4,-1
 -7 254 l 1,5,-1
 368 254 l 1,6,-1
 368 497 l 1,7,-1
 -7 497 l 1,8,-1
 -7 1254 l 1,9,-1
 625 1254 l 1,10,-1
 625 -4 l 1,11,-1
 -7 -4 l 1,4,-1
EndSplineSet
Validated: 1
EndChar
StartChar: colon
Encoding: 58 58 29
Width: 375
GlyphClass: 1
Flags: W
LayerCount: 2
Fore
SplineSet
250 497 m 1,0,-1
 -7 497 l 1,1,-1
 -7 754 l 1,2,-1
 250 754 l 1,3,-1
 250 497 l 1,0,-1
250 122 m 1,4,-1
 -7 122 l 1,5,-1
 -7 379 l 1,6,-1
 250 379 l 1,7,-1
 250 122 l 1,4,-1
EndSplineSet
Validated: 1
EndChar
StartChar: less
Encoding: 60 60 31
Width: 875
GlyphClass: 1
Flags: W
LayerCount: 2
Fore
SplineSet
750 -4 m 1,0,-1
 368 -4 l 1,1,-1
 368 122 l 1,2,-1
 243 122 l 1,3,-1
 243 247 l 1,4,-1
 118 247 l 1,5,-1
 118 372 l 1,6,-1
 -7 372 l 1,7,-1
 -7 504 l 1,8,-1
 118 504 l 1,9,-1
 118 629 l 1,10,-1
 243 629 l 1,11,-1
 243 754 l 1,12,-1
 368 754 l 1,13,-1
 368 879 l 1,14,-1
 750 879 l 1,15,-1
 750 747 l 1,16,-1
 625 747 l 1,17,-1
 625 622 l 1,18,-1
 500 622 l 1,19,-1
 500 497 l 1,20,-1
 375 497 l 1,21,-1
 375 379 l 1,22,-1
 500 379 l 1,23,-1
 500 254 l 1,24,-1
 625 254 l 1,25,-1
 625 129 l 1,26,-1
 750 129 l 1,27,-1
 750 -4 l 1,0,-1
EndSplineSet
Validated: 1
EndChar
StartChar: equal
Encoding: 61 61 32
Width: 750
GlyphClass: 1
Flags: W
LayerCount: 2
Fore
SplineSet
625 492 m 1,0,-1
 -7 492 l 1,1,-1
 -7 749 l 1,2,-1
 625 749 l 1,3,-1
 625 492 l 1,0,-1
625 117 m 1,4,-1
 -7 117 l 1,5,-1
 -7 374 l 1,6,-1
 625 374 l 1,7,-1
 625 117 l 1,4,-1
EndSplineSet
Validated: 1
EndChar
StartChar: greater
Encoding: 62 62 33
Width: 875
GlyphClass: 1
Flags: W
LayerCount: 2
Fore
SplineSet
-7 -4 m 1,0,-1
 375 -4 l 1,1,-1
 375 122 l 1,2,-1
 500 122 l 1,3,-1
 500 247 l 1,4,-1
 625 247 l 1,5,-1
 625 372 l 1,6,-1
 750 372 l 1,7,-1
 750 504 l 1,8,-1
 625 504 l 1,9,-1
 625 629 l 1,10,-1
 500 629 l 1,11,-1
 500 754 l 1,12,-1
 375 754 l 1,13,-1
 375 879 l 1,14,-1
 -7 879 l 1,15,-1
 -7 747 l 1,16,-1
 118 747 l 1,17,-1
 118 622 l 1,18,-1
 243 622 l 1,19,-1
 243 497 l 1,20,-1
 368 497 l 1,21,-1
 368 379 l 1,22,-1
 243 379 l 1,23,-1
 243 254 l 1,24,-1
 118 254 l 1,25,-1
 118 129 l 1,26,-1
 -7 129 l 1,27,-1
 -7 -4 l 1,0,-1
EndSplineSet
Validated: 9
EndChar
StartChar: question
Encoding: 63 63 34
Width: 875
GlyphClass: 1
Flags: W
LayerCount: 2
Fore
SplineSet
500 372 m 1,0,-1
 243 372 l 1,1,-1
 243 754 l 1,2,-1
 493 754 l 1,3,-1
 493 997 l 1,4,-1
 250 997 l 1,5,-1
 250 872 l 1,6,-1
 -7 872 l 1,7,-1
 -7 1254 l 1,8,-1
 750 1254 l 1,9,-1
 750 497 l 1,10,-1
 500 497 l 1,11,-1
 500 372 l 1,0,-1
500 -4 m 1,12,-1
 243 -4 l 1,13,-1
 243 254 l 1,14,-1
 500 254 l 1,15,-1
 500 -4 l 1,12,-1
EndSplineSet
Validated: 1
EndChar
StartChar: at
Encoding: 64 64 35
Width: 875
GlyphClass: 1
Flags: W
LayerCount: 2
Fore
SplineSet
-7 -4 m 1,0,-1
 -7 1129 l 1,1,-1
 750 1129 l 1,2,-1
 750 372 l 1,3,-1
 368 372 l 1,4,-1
 368 754 l 1,5,-1
 493 754 l 1,6,-1
 493 872 l 1,7,-1
 250 872 l 1,8,-1
 250 254 l 1,9,-1
 750 254 l 1,10,-1
 750 -4 l 1,11,-1
 -7 -4 l 1,0,-1
EndSplineSet
Validated: 1
EndChar
StartChar: A
Encoding: 65 65 36
Width: 875
GlyphClass: 1
Flags: W
LayerCount: 2
Fore
SplineSet
250 997 m 1,0,-1
 250 754 l 1,1,-1
 493 754 l 1,2,-1
 493 997 l 1,3,-1
 250 997 l 1,0,-1
250 -4 m 1,4,-1
 -7 -4 l 1,5,-1
 -7 1254 l 1,6,-1
 750 1254 l 1,7,-1
 750 -4 l 1,8,-1
 493 -4 l 1,9,-1
 493 497 l 1,10,-1
 250 497 l 1,11,-1
 250 -4 l 1,4,-1
EndSplineSet
Validated: 1
EndChar
StartChar: B
Encoding: 66 66 37
Width: 875
GlyphClass: 1
Flags: W
LayerCount: 2
Fore
SplineSet
250 997 m 1,0,-1
 250 754 l 1,1,-1
 368 754 l 1,2,-1
 368 997 l 1,3,-1
 250 997 l 1,0,-1
250 254 m 1,4,-1
 493 254 l 1,5,-1
 493 497 l 1,6,-1
 250 497 l 1,7,-1
 250 254 l 1,4,-1
-7 -4 m 1,8,-1
 -7 1254 l 1,9,-1
 625 1254 l 1,10,-1
 625 629 l 1,11,-1
 750 629 l 1,12,-1
 750 -4 l 1,13,-1
 -7 -4 l 1,8,-1
EndSplineSet
Validated: 1
EndChar
StartChar: C
Encoding: 67 67 38
Width: 875
GlyphClass: 1
Flags: W
LayerCount: 2
Fore
SplineSet
118 -4 m 1,0,-1
 118 122 l 1,1,-1
 -7 122 l 1,2,-1
 -7 1129 l 1,3,-1
 118 1129 l 1,4,-1
 118 1254 l 1,5,-1
 625 1254 l 1,6,-1
 625 1129 l 1,7,-1
 750 1129 l 1,8,-1
 750 747 l 1,9,-1
 493 747 l 1,10,-1
 493 997 l 1,11,-1
 250 997 l 1,12,-1
 250 254 l 1,13,-1
 493 254 l 1,14,-1
 493 504 l 1,15,-1
 750 504 l 1,16,-1
 750 122 l 1,17,-1
 625 122 l 1,18,-1
 625 -4 l 1,19,-1
 118 -4 l 1,0,-1
0 1250 m 1,20,-1
 118 1250 l 1,21,-1
 118 1129 l 1,22,-1
 0 1129 l 1,23,-1
 0 1250 l 1,20,-1
-7 122 m 1,24,-1
 118 122 l 1,25,-1
 118 -4 l 1,26,-1
 -7 -4 l 1,27,-1
 -7 122 l 1,24,-1
625 125 m 1,28,-1
 750 125 l 1,29,-1
 750 0 l 1,30,-1
 625 0 l 1,31,-1
 625 125 l 1,28,-1
625 1250 m 1,32,-1
 750 1250 l 1,33,-1
 750 1129 l 1,34,-1
 625 1129 l 1,35,-1
 625 1250 l 1,32,-1
EndSplineSet
Validated: 5
EndChar
StartChar: D
Encoding: 68 68 39
Width: 875
GlyphClass: 1
Flags: W
LayerCount: 2
Fore
SplineSet
250 254 m 1,0,-1
 493 254 l 1,1,-1
 493 997 l 1,2,-1
 250 997 l 1,3,-1
 250 254 l 1,0,-1
-7 -4 m 1,4,-1
 -7 1254 l 1,5,-1
 625 1254 l 1,6,-1
 625 1129 l 1,7,-1
 750 1129 l 1,8,-1
 750 122 l 1,9,-1
 625 122 l 1,10,-1
 625 -4 l 1,11,-1
 -7 -4 l 1,4,-1
EndSplineSet
Validated: 1
EndChar
StartChar: E
Encoding: 69 69 40
Width: 750
GlyphClass: 1
Flags: W
LayerCount: 2
Fore
SplineSet
625 -4 m 1,0,-1
 -7 -4 l 1,1,-1
 -7 1254 l 1,2,-1
 625 1254 l 1,3,-1
 625 997 l 1,4,-1
 250 997 l 1,5,-1
 250 754 l 1,6,-1
 625 754 l 1,7,-1
 625 497 l 1,8,-1
 250 497 l 1,9,-1
 250 254 l 1,10,-1
 625 254 l 1,11,-1
 625 -4 l 1,0,-1
EndSplineSet
Validated: 1
EndChar
StartChar: F
Encoding: 70 70 41
Width: 750
GlyphClass: 1
Flags: W
LayerCount: 2
Fore
SplineSet
250 -4 m 1,0,-1
 -7 -4 l 1,1,-1
 -7 1254 l 1,2,-1
 625 1254 l 1,3,-1
 625 997 l 1,4,-1
 250 997 l 1,5,-1
 250 754 l 1,6,-1
 625 754 l 1,7,-1
 625 497 l 1,8,-1
 250 497 l 1,9,-1
 250 -4 l 1,0,-1
EndSplineSet
Validated: 1
EndChar
StartChar: G
Encoding: 71 71 42
Width: 875
GlyphClass: 1
Flags: W
LayerCount: 2
Fore
SplineSet
118 -4 m 1,0,-1
 118 122 l 1,1,-1
 -7 122 l 1,2,-1
 -7 1129 l 1,3,-1
 118 1129 l 1,4,-1
 118 1254 l 1,5,-1
 750 1254 l 1,6,-1
 750 997 l 1,7,-1
 250 997 l 1,8,-1
 250 254 l 1,9,-1
 493 254 l 1,10,-1
 493 497 l 1,11,-1
 368 497 l 1,12,-1
 368 754 l 1,13,-1
 750 754 l 1,14,-1
 750 122 l 1,15,-1
 625 122 l 1,16,-1
 625 -4 l 1,17,-1
 118 -4 l 1,0,-1
0 1250 m 1,18,-1
 118 1250 l 1,19,-1
 118 1129 l 1,20,-1
 0 1129 l 1,21,-1
 0 1250 l 1,18,-1
625 122 m 1,22,-1
 750 122 l 1,23,-1
 750 0 l 1,24,-1
 625 0 l 1,25,-1
 625 122 l 1,22,-1
-7 122 m 1,26,-1
 118 122 l 1,27,-1
 118 -4 l 1,28,-1
 -7 -4 l 1,29,-1
 -7 122 l 1,26,-1
EndSplineSet
Validated: 5
EndChar
StartChar: H
Encoding: 72 72 43
Width: 875
GlyphClass: 1
Flags: W
LayerCount: 2
Fore
SplineSet
250 -4 m 1,0,-1
 -7 -4 l 1,1,-1
 -7 1254 l 1,2,-1
 250 1254 l 1,3,-1
 250 754 l 1,4,-1
 493 754 l 1,5,-1
 493 1254 l 1,6,-1
 750 1254 l 1,7,-1
 750 -4 l 1,8,-1
 493 -4 l 1,9,-1
 493 497 l 1,10,-1
 250 497 l 1,11,-1
 250 -4 l 1,0,-1
EndSplineSet
Validated: 1
EndChar
StartChar: K
Encoding: 75 75 46
Width: 875
GlyphClass: 1
Flags: W
LayerCount: 2
Fore
SplineSet
250 -4 m 1,0,-1
 -7 -4 l 1,1,-1
 -7 1254 l 1,2,-1
 250 1254 l 1,3,-1
 250 754 l 1,4,-1
 493 754 l 1,5,-1
 493 1254 l 1,6,-1
 750 1254 l 1,7,-1
 750 747 l 1,8,-1
 625 747 l 1,9,-1
 625 504 l 1,10,-1
 750 504 l 1,11,-1
 750 -4 l 1,12,-1
 493 -4 l 1,13,-1
 493 497 l 1,14,-1
 250 497 l 1,15,-1
 250 -4 l 1,0,-1
EndSplineSet
Validated: 1
EndChar
StartChar: L
Encoding: 76 76 47
Width: 750
GlyphClass: 1
Flags: W
LayerCount: 2
Fore
SplineSet
-7 -4 m 1,0,-1
 -7 1254 l 1,1,-1
 250 1254 l 1,2,-1
 250 254 l 1,3,-1
 625 254 l 1,4,-1
 625 -4 l 1,5,-1
 -7 -4 l 1,0,-1
EndSplineSet
Validated: 1
EndChar
StartChar: M
Encoding: 77 77 48
Width: 1375
GlyphClass: 1
Flags: W
LayerCount: 2
Fore
SplineSet
250 -4 m 1,0,-1
 -7 -4 l 1,1,-1
 -7 1254 l 1,2,-1
 1250 1254 l 1,3,-1
 1250 -4 l 1,4,-1
 993 -4 l 1,5,-1
 993 997 l 1,6,-1
 750 997 l 1,7,-1
 750 -4 l 1,8,-1
 493 -4 l 1,9,-1
 493 997 l 1,10,-1
 250 997 l 1,11,-1
 250 -4 l 1,0,-1
EndSplineSet
Validated: 1
EndChar
StartChar: N
Encoding: 78 78 49
Width: 875
GlyphClass: 1
Flags: W
LayerCount: 2
Fore
SplineSet
250 -4 m 1,0,-1
 -7 -4 l 1,1,-1
 -7 1254 l 1,2,-1
 750 1254 l 1,3,-1
 750 -4 l 1,4,-1
 493 -4 l 1,5,-1
 493 997 l 1,6,-1
 250 997 l 1,7,-1
 250 -4 l 1,0,-1
EndSplineSet
Validated: 1
EndChar
StartChar: P
Encoding: 80 80 51
Width: 875
GlyphClass: 1
Flags: W
LayerCount: 2
Fore
SplineSet
250 997 m 1,0,-1
 250 754 l 1,1,-1
 493 754 l 1,2,-1
 493 997 l 1,3,-1
 250 997 l 1,0,-1
250 -4 m 1,4,-1
 -7 -4 l 1,5,-1
 -7 1254 l 1,6,-1
 625 1254 l 1,7,-1
 625 1129 l 1,8,-1
 750 1129 l 1,9,-1
 750 622 l 1,10,-1
 625 622 l 1,11,-1
 625 497 l 1,12,-1
 250 497 l 1,13,-1
 250 -4 l 1,4,-1
625 1254 m 1,14,-1
 750 1254 l 1,15,-1
 750 1129 l 1,16,-1
 625 1129 l 1,17,-1
 625 1254 l 1,14,-1
625 622 m 1,18,-1
 750 622 l 1,19,-1
 750 500 l 1,20,-1
 625 500 l 1,21,-1
 625 622 l 1,18,-1
EndSplineSet
Validated: 5
EndChar
StartChar: Q
Encoding: 81 81 52
Width: 875
GlyphClass: 1
Flags: W
LayerCount: 2
Fore
SplineSet
250 254 m 1,0,-1
 493 254 l 1,1,-1
 493 997 l 1,2,-1
 250 997 l 1,3,-1
 250 254 l 1,0,-1
118 -4 m 1,4,-1
 118 122 l 1,5,-1
 -7 122 l 1,6,-1
 -7 1129 l 1,7,-1
 118 1129 l 1,8,-1
 118 1254 l 1,9,-1
 625 1254 l 1,10,-1
 625 1129 l 1,11,-1
 750 1129 l 1,12,-1
 750 122 l 1,13,-1
 625 122 l 1,14,-1
 625 -4 l 1,15,-1
 118 -4 l 1,4,-1
250 -4 m 1,16,-1
 497 -4 l 1,17,-1
 497 -250 l 1,18,-1
 250 -250 l 1,19,-1
 250 -4 l 1,16,-1
0 1250 m 1,20,-1
 118 1250 l 1,21,-1
 118 1129 l 1,22,-1
 0 1129 l 1,23,-1
 0 1250 l 1,20,-1
625 1254 m 1,24,-1
 750 1254 l 1,25,-1
 750 1129 l 1,26,-1
 625 1129 l 1,27,-1
 625 1254 l 1,24,-1
625 122 m 1,28,-1
 750 122 l 1,29,-1
 750 0 l 1,30,-1
 625 0 l 1,31,-1
 625 122 l 1,28,-1
-7 122 m 1,32,-1
 118 122 l 1,33,-1
 118 -4 l 1,34,-1
 -7 -4 l 1,35,-1
 -7 122 l 1,32,-1
EndSplineSet
Validated: 5
EndChar
StartChar: R
Encoding: 82 82 53
Width: 875
GlyphClass: 1
Flags: W
LayerCount: 2
Fore
SplineSet
250 997 m 1,0,-1
 250 754 l 1,1,-1
 493 754 l 1,2,-1
 493 997 l 1,3,-1
 250 997 l 1,0,-1
250 -4 m 1,4,-1
 -7 -4 l 1,5,-1
 -7 1254 l 1,6,-1
 625 1254 l 1,7,-1
 625 1129 l 1,8,-1
 750 1129 l 1,9,-1
 750 622 l 1,10,-1
 625 622 l 1,11,-1
 625 504 l 1,12,-1
 750 504 l 1,13,-1
 750 -4 l 1,14,-1
 493 -4 l 1,15,-1
 493 497 l 1,16,-1
 250 497 l 1,17,-1
 250 -4 l 1,4,-1
625 1254 m 1,18,-1
 750 1254 l 1,19,-1
 750 1129 l 1,20,-1
 625 1129 l 1,21,-1
 625 1254 l 1,18,-1
EndSplineSet
Validated: 5
EndChar
StartChar: S
Encoding: 83 83 54
Width: 875
GlyphClass: 1
Flags: W
LayerCount: 2
Fore
SplineSet
625 -4 m 1,0,-1
 -7 -4 l 1,1,-1
 -7 254 l 1,2,-1
 493 254 l 1,3,-1
 493 497 l 1,4,-1
 118 497 l 1,5,-1
 118 622 l 1,6,-1
 -7 622 l 1,7,-1
 -7 1129 l 1,8,-1
 118 1129 l 1,9,-1
 118 1254 l 1,10,-1
 750 1254 l 1,11,-1
 750 997 l 1,12,-1
 250 997 l 1,13,-1
 250 754 l 1,14,-1
 625 754 l 1,15,-1
 625 629 l 1,16,-1
 750 629 l 1,17,-1
 750 122 l 1,18,-1
 625 122 l 1,19,-1
 625 -4 l 1,0,-1
0 1250 m 1,20,-1
 118 1250 l 1,21,-1
 118 1129 l 1,22,-1
 0 1129 l 1,23,-1
 0 1250 l 1,20,-1
-7 622 m 1,24,-1
 118 622 l 1,25,-1
 118 497 l 1,26,-1
 -7 497 l 1,27,-1
 -7 622 l 1,24,-1
625 754 m 1,28,-1
 750 754 l 1,29,-1
 750 629 l 1,30,-1
 625 629 l 1,31,-1
 625 754 l 1,28,-1
625 122 m 1,32,-1
 750 122 l 1,33,-1
 750 0 l 1,34,-1
 625 0 l 1,35,-1
 625 122 l 1,32,-1
EndSplineSet
Validated: 5
EndChar
StartChar: T
Encoding: 84 84 55
Width: 875
GlyphClass: 1
Flags: W
LayerCount: 2
Fore
SplineSet
500 -4 m 1,0,-1
 243 -4 l 1,1,-1
 243 997 l 1,2,-1
 -7 997 l 1,3,-1
 -7 1254 l 1,4,-1
 750 1254 l 1,5,-1
 750 997 l 1,6,-1
 500 997 l 1,7,-1
 500 -4 l 1,0,-1
EndSplineSet
Validated: 1
EndChar
StartChar: U
Encoding: 85 85 56
Width: 875
GlyphClass: 1
Flags: W
LayerCount: 2
Fore
SplineSet
118 -4 m 1,0,-1
 118 122 l 1,1,-1
 -7 122 l 1,2,-1
 -7 1254 l 1,3,-1
 250 1254 l 1,4,-1
 250 254 l 1,5,-1
 493 254 l 1,6,-1
 493 1254 l 1,7,-1
 750 1254 l 1,8,-1
 750 122 l 1,9,-1
 625 122 l 1,10,-1
 625 -4 l 1,11,-1
 118 -4 l 1,0,-1
-7 122 m 1,12,-1
 118 122 l 1,13,-1
 118 -4 l 1,14,-1
 -7 -4 l 1,15,-1
 -7 122 l 1,12,-1
625 122 m 1,16,-1
 750 122 l 1,17,-1
 750 0 l 1,18,-1
 625 0 l 1,19,-1
 625 122 l 1,16,-1
EndSplineSet
Validated: 5
EndChar
StartChar: V
Encoding: 86 86 57
Width: 875
GlyphClass: 1
Flags: W
LayerCount: 2
Fore
SplineSet
-7 -4 m 1,0,-1
 -7 1254 l 1,1,-1
 250 1254 l 1,2,-1
 250 254 l 1,3,-1
 368 254 l 1,4,-1
 368 379 l 1,5,-1
 493 379 l 1,6,-1
 493 1254 l 1,7,-1
 750 1254 l 1,8,-1
 750 247 l 1,9,-1
 625 247 l 1,10,-1
 625 122 l 1,11,-1
 500 122 l 1,12,-1
 500 -4 l 1,13,-1
 -7 -4 l 1,0,-1
EndSplineSet
Validated: 1
EndChar
StartChar: W
Encoding: 87 87 58
Width: 1125
GlyphClass: 1
Flags: W
LayerCount: 2
Fore
SplineSet
250 254 m 1,0,-1
 368 254 l 1,1,-1
 368 1254 l 1,2,-1
 625 1254 l 1,3,-1
 625 254 l 1,4,-1
 743 254 l 1,5,-1
 743 1254 l 1,6,-1
 1000 1254 l 1,7,-1
 1000 122 l 1,8,-1
 875 122 l 1,9,-1
 875 -4 l 1,10,-1
 118 -4 l 1,11,-1
 118 122 l 1,12,-1
 -7 122 l 1,13,-1
 -7 1254 l 1,14,-1
 250 1254 l 1,15,-1
 250 254 l 1,0,-1
-7 122 m 1,16,-1
 118 122 l 1,17,-1
 118 -4 l 1,18,-1
 -7 -4 l 1,19,-1
 -7 122 l 1,16,-1
875 122 m 1,20,-1
 1000 122 l 1,21,-1
 1000 0 l 1,22,-1
 875 0 l 1,23,-1
 875 122 l 1,20,-1
EndSplineSet
Validated: 5
EndChar
StartChar: X
Encoding: 88 88 59
Width: 875
GlyphClass: 1
Flags: W
LayerCount: 2
Fore
SplineSet
250 -4 m 1,0,-1
 -7 -4 l 1,1,-1
 -7 504 l 1,2,-1
 118 504 l 1,3,-1
 118 747 l 1,4,-1
 -7 747 l 1,5,-1
 -7 1254 l 1,6,-1
 250 1254 l 1,7,-1
 250 754 l 1,8,-1
 493 754 l 1,9,-1
 493 1254 l 1,10,-1
 750 1254 l 1,11,-1
 750 747 l 1,12,-1
 625 747 l 1,13,-1
 625 504 l 1,14,-1
 750 504 l 1,15,-1
 750 -4 l 1,16,-1
 493 -4 l 1,17,-1
 493 497 l 1,18,-1
 250 497 l 1,19,-1
 250 -4 l 1,0,-1
0 625 m 1,20,-1
 118 625 l 1,21,-1
 118 504 l 1,22,-1
 0 504 l 1,23,-1
 0 625 l 1,20,-1
625 625 m 1,24,-1
 750 625 l 1,25,-1
 750 500 l 1,26,-1
 625 500 l 1,27,-1
 625 625 l 1,24,-1
EndSplineSet
Validated: 5
EndChar
StartChar: Y
Encoding: 89 89 60
Width: 875
GlyphClass: 1
Flags: W
LayerCount: 2
Fore
SplineSet
500 -4 m 1,0,-1
 243 -4 l 1,1,-1
 243 497 l 1,2,-1
 -7 497 l 1,3,-1
 -7 1254 l 1,4,-1
 250 1254 l 1,5,-1
 250 754 l 1,6,-1
 493 754 l 1,7,-1
 493 1254 l 1,8,-1
 750 1254 l 1,9,-1
 750 497 l 1,10,-1
 500 497 l 1,11,-1
 500 -4 l 1,0,-1
EndSplineSet
Validated: 1
EndChar
StartChar: Z
Encoding: 90 90 61
Width: 875
GlyphClass: 1
Flags: W
LayerCount: 2
Fore
SplineSet
750 -4 m 1,0,-1
 -7 -4 l 1,1,-1
 -7 504 l 1,2,-1
 118 504 l 1,3,-1
 118 629 l 1,4,-1
 243 629 l 1,5,-1
 243 754 l 1,6,-1
 368 754 l 1,7,-1
 368 879 l 1,8,-1
 493 879 l 1,9,-1
 493 997 l 1,10,-1
 -7 997 l 1,11,-1
 -7 1254 l 1,12,-1
 750 1254 l 1,13,-1
 750 872 l 1,14,-1
 625 872 l 1,15,-1
 625 747 l 1,16,-1
 500 747 l 1,17,-1
 500 622 l 1,18,-1
 375 622 l 1,19,-1
 375 497 l 1,20,-1
 250 497 l 1,21,-1
 250 254 l 1,22,-1
 750 254 l 1,23,-1
 750 -4 l 1,0,-1
250 497 m 1,24,-1
 375 497 l 1,25,-1
 375 375 l 1,26,-1
 250 375 l 1,27,-1
 250 497 l 1,24,-1
375 622 m 1,28,-1
 500 622 l 1,29,-1
 500 500 l 1,30,-1
 375 500 l 1,31,-1
 375 622 l 1,28,-1
500 747 m 1,32,-1
 625 747 l 1,33,-1
 625 625 l 1,34,-1
 500 625 l 1,35,-1
 500 747 l 1,32,-1
625 872 m 1,36,-1
 750 872 l 1,37,-1
 750 750 l 1,38,-1
 625 750 l 1,39,-1
 625 872 l 1,36,-1
EndSplineSet
Validated: 5
EndChar
StartChar: bracketleft
Encoding: 91 91 62
Width: 500
GlyphClass: 1
Flags: W
LayerCount: 2
Fore
SplineSet
375 -129 m 1,0,-1
 118 -129 l 1,1,-1
 118 -4 l 1,2,-1
 -7 -4 l 1,3,-1
 -7 1254 l 1,4,-1
 118 1254 l 1,5,-1
 118 1379 l 1,6,-1
 375 1379 l 1,7,-1
 375 1122 l 1,8,-1
 250 1122 l 1,9,-1
 250 129 l 1,10,-1
 375 129 l 1,11,-1
 375 -129 l 1,0,-1
-4 1375 m 1,12,-1
 118 1375 l 1,13,-1
 118 1254 l 1,14,-1
 -4 1254 l 1,15,-1
 -4 1375 l 1,12,-1
-7 -4 m 1,16,-1
 118 -4 l 1,17,-1
 118 -129 l 1,18,-1
 -7 -129 l 1,19,-1
 -7 -4 l 1,16,-1
EndSplineSet
Validated: 5
EndChar
StartChar: backslash
Encoding: 92 92 63
Width: 875
GlyphClass: 1
Flags: W
LayerCount: 2
Fore
SplineSet
493 -4 m 1,0,-1
 750 -4 l 1,1,-1
 750 379 l 1,2,-1
 625 379 l 1,3,-1
 625 629 l 1,4,-1
 500 629 l 1,5,-1
 500 879 l 1,6,-1
 375 879 l 1,7,-1
 375 1129 l 1,8,-1
 250 1129 l 1,9,-1
 250 1254 l 1,10,-1
 -7 1254 l 1,11,-1
 -7 997 l 1,12,-1
 118 997 l 1,13,-1
 118 747 l 1,14,-1
 243 747 l 1,15,-1
 243 497 l 1,16,-1
 368 497 l 1,17,-1
 368 247 l 1,18,-1
 493 247 l 1,19,-1
 493 -4 l 1,0,-1
EndSplineSet
Validated: 9
EndChar
StartChar: bracketright
Encoding: 93 93 64
Width: 500
GlyphClass: 1
Flags: W
LayerCount: 2
Fore
SplineSet
-7 -129 m 1,0,-1
 250 -129 l 1,1,-1
 250 -4 l 1,2,-1
 375 -4 l 1,3,-1
 375 1254 l 1,4,-1
 250 1254 l 1,5,-1
 250 1379 l 1,6,-1
 -7 1379 l 1,7,-1
 -7 1122 l 1,8,-1
 118 1122 l 1,9,-1
 118 129 l 1,10,-1
 -7 129 l 1,11,-1
 -7 -129 l 1,0,-1
372 1375 m 1,12,-1
 250 1375 l 1,13,-1
 250 1254 l 1,14,-1
 372 1254 l 1,15,-1
 372 1375 l 1,12,-1
375 -4 m 1,16,-1
 250 -4 l 1,17,-1
 250 -129 l 1,18,-1
 375 -129 l 1,19,-1
 375 -4 l 1,16,-1
EndSplineSet
Validated: 5
EndChar
StartChar: asciicircum
Encoding: 94 94 65
Width: 1000
GlyphClass: 1
Flags: W
LayerCount: 2
Fore
SplineSet
375 742 m 1,0,-1
 -7 742 l 1,1,-1
 -7 874 l 1,2,-1
 118 874 l 1,3,-1
 118 999 l 1,4,-1
 243 999 l 1,5,-1
 243 1124 l 1,6,-1
 368 1124 l 1,7,-1
 368 1249 l 1,8,-1
 500 1249 l 1,9,-1
 500 1124 l 1,10,-1
 625 1124 l 1,11,-1
 625 999 l 1,12,-1
 750 999 l 1,13,-1
 750 874 l 1,14,-1
 875 874 l 1,15,-1
 875 742 l 1,16,-1
 493 742 l 1,17,-1
 493 867 l 1,18,-1
 375 867 l 1,19,-1
 375 742 l 1,0,-1
EndSplineSet
Validated: 1
EndChar
StartChar: underscore
Encoding: 95 95 66
Width: 750
GlyphClass: 1
Flags: W
LayerCount: 2
Fore
SplineSet
500 -254 m 1,0,-1
 -7 -254 l 1,1,-1
 -7 -122 l 1,2,-1
 500 -122 l 1,3,-1
 500 -254 l 1,0,-1
-7 -254 m 1,4,-1
 500 -254 l 1,5,-1
 500 -375 l 1,6,-1
 -7 -375 l 1,7,-1
 -7 -254 l 1,4,-1
500 -122 m 1,8,-1
 625 -122 l 1,9,-1
 625 -375 l 1,10,-1
 500 -375 l 1,11,-1
 500 -122 l 1,8,-1
EndSplineSet
Validated: 5
EndChar
StartChar: grave
Encoding: 96 96 67
Width: 500
GlyphClass: 1
Flags: W
LayerCount: 2
Fore
SplineSet
375 1122 m 1,0,-1
 118 1122 l 1,1,-1
 118 1247 l 1,2,-1
 -7 1247 l 1,3,-1
 -7 1379 l 1,4,-1
 250 1379 l 1,5,-1
 250 1254 l 1,6,-1
 375 1254 l 1,7,-1
 375 1122 l 1,0,-1
EndSplineSet
Validated: 1
EndChar
StartChar: a
Encoding: 97 97 68
Width: 750
GlyphClass: 1
Flags: W
LayerCount: 2
Fore
SplineSet
250 372 m 1,0,-1
 250 254 l 1,1,-1
 368 254 l 1,2,-1
 368 372 l 1,3,-1
 250 372 l 1,0,-1
-7 -4 m 1,4,-1
 -7 504 l 1,5,-1
 368 504 l 1,6,-1
 368 622 l 1,7,-1
 -7 622 l 1,8,-1
 -7 879 l 1,9,-1
 625 879 l 1,10,-1
 625 -4 l 1,11,-1
 -7 -4 l 1,4,-1
EndSplineSet
Validated: 1
EndChar
StartChar: b
Encoding: 98 98 69
Width: 750
GlyphClass: 1
Flags: W
LayerCount: 2
Fore
SplineSet
250 254 m 1,0,-1
 368 254 l 1,1,-1
 368 622 l 1,2,-1
 250 622 l 1,3,-1
 250 254 l 1,0,-1
-7 -4 m 1,4,-1
 -7 1254 l 1,5,-1
 250 1254 l 1,6,-1
 250 879 l 1,7,-1
 500 879 l 1,8,-1
 500 754 l 1,9,-1
 625 754 l 1,10,-1
 625 122 l 1,11,-1
 500 122 l 1,12,-1
 500 -4 l 1,13,-1
 -7 -4 l 1,4,-1
500 879 m 1,14,-1
 625 879 l 1,15,-1
 625 754 l 1,16,-1
 500 754 l 1,17,-1
 500 879 l 1,14,-1
500 122 m 1,18,-1
 625 122 l 1,19,-1
 625 0 l 1,20,-1
 500 0 l 1,21,-1
 500 122 l 1,18,-1
EndSplineSet
Validated: 5
EndChar
StartChar: c
Encoding: 99 99 70
Width: 750
GlyphClass: 1
Flags: W
LayerCount: 2
Fore
SplineSet
118 -4 m 1,0,-1
 118 122 l 1,1,-1
 -7 122 l 1,2,-1
 -7 754 l 1,3,-1
 118 754 l 1,4,-1
 118 879 l 1,5,-1
 500 879 l 1,6,-1
 500 754 l 1,7,-1
 625 754 l 1,8,-1
 625 497 l 1,9,-1
 368 497 l 1,10,-1
 368 622 l 1,11,-1
 250 622 l 1,12,-1
 250 254 l 1,13,-1
 368 254 l 1,14,-1
 368 379 l 1,15,-1
 625 379 l 1,16,-1
 625 122 l 1,17,-1
 500 122 l 1,18,-1
 500 -4 l 1,19,-1
 118 -4 l 1,0,-1
0 875 m 1,20,-1
 125 875 l 1,21,-1
 125 750 l 1,22,-1
 0 750 l 1,23,-1
 0 875 l 1,20,-1
500 875 m 1,24,-1
 625 875 l 1,25,-1
 625 754 l 1,26,-1
 500 754 l 1,27,-1
 500 875 l 1,24,-1
500 122 m 1,28,-1
 625 122 l 1,29,-1
 625 0 l 1,30,-1
 500 0 l 1,31,-1
 500 122 l 1,28,-1
-7 122 m 1,32,-1
 118 122 l 1,33,-1
 118 -4 l 1,34,-1
 -7 -4 l 1,35,-1
 -7 122 l 1,32,-1
EndSplineSet
Validated: 5
EndChar
StartChar: d
Encoding: 100 100 71
Width: 750
GlyphClass: 1
Flags: W
LayerCount: 2
Fore
SplineSet
250 254 m 1,0,-1
 368 254 l 1,1,-1
 368 622 l 1,2,-1
 250 622 l 1,3,-1
 250 254 l 1,0,-1
118 -4 m 1,4,-1
 118 122 l 1,5,-1
 -7 122 l 1,6,-1
 -7 754 l 1,7,-1
 118 754 l 1,8,-1
 118 879 l 1,9,-1
 368 879 l 1,10,-1
 368 1254 l 1,11,-1
 625 1254 l 1,12,-1
 625 -4 l 1,13,-1
 118 -4 l 1,4,-1
0 875 m 1,14,-1
 118 875 l 1,15,-1
 118 754 l 1,16,-1
 0 754 l 1,17,-1
 0 875 l 1,14,-1
-7 122 m 1,18,-1
 118 122 l 1,19,-1
 118 -4 l 1,20,-1
 -7 -4 l 1,21,-1
 -7 122 l 1,18,-1
EndSplineSet
Validated: 5
EndChar
StartChar: e
Encoding: 101 101 72
Width: 750
GlyphClass: 1
Flags: W
LayerCount: 2
Fore
SplineSet
250 622 m 1,0,-1
 250 504 l 1,1,-1
 368 504 l 1,2,-1
 368 622 l 1,3,-1
 250 622 l 1,0,-1
118 -4 m 1,4,-1
 118 122 l 1,5,-1
 -7 122 l 1,6,-1
 -7 754 l 1,7,-1
 118 754 l 1,8,-1
 118 879 l 1,9,-1
 500 879 l 1,10,-1
 500 754 l 1,11,-1
 625 754 l 1,12,-1
 625 372 l 1,13,-1
 250 372 l 1,14,-1
 250 254 l 1,15,-1
 625 254 l 1,16,-1
 625 -4 l 1,17,-1
 118 -4 l 1,4,-1
0 875 m 1,18,-1
 118 875 l 1,19,-1
 118 754 l 1,20,-1
 0 754 l 1,21,-1
 0 875 l 1,18,-1
500 879 m 1,22,-1
 625 879 l 1,23,-1
 625 754 l 1,24,-1
 500 754 l 1,25,-1
 500 879 l 1,22,-1
-7 122 m 1,26,-1
 118 122 l 1,27,-1
 118 -4 l 1,28,-1
 -7 -4 l 1,29,-1
 -7 122 l 1,26,-1
EndSplineSet
Validated: 5
EndChar
StartChar: f
Encoding: 102 102 73
Width: 625
GlyphClass: 1
Flags: W
LayerCount: 2
Fore
SplineSet
250 -4 m 1,0,-1
 -7 -4 l 1,1,-1
 -7 1129 l 1,2,-1
 118 1129 l 1,3,-1
 118 1254 l 1,4,-1
 500 1254 l 1,5,-1
 500 997 l 1,6,-1
 250 997 l 1,7,-1
 250 879 l 1,8,-1
 500 879 l 1,9,-1
 500 622 l 1,10,-1
 250 622 l 1,11,-1
 250 -4 l 1,0,-1
0 1250 m 1,12,-1
 118 1250 l 1,13,-1
 118 1129 l 1,14,-1
 0 1129 l 1,15,-1
 0 1250 l 1,12,-1
EndSplineSet
Validated: 5
EndChar
StartChar: g
Encoding: 103 103 74
Width: 750
GlyphClass: 1
Flags: W
LayerCount: 2
Fore
SplineSet
250 254 m 1,0,-1
 368 254 l 1,1,-1
 368 622 l 1,2,-1
 250 622 l 1,3,-1
 250 254 l 1,0,-1
500 -379 m 1,4,-1
 118 -379 l 1,5,-1
 118 -122 l 1,6,-1
 368 -122 l 1,7,-1
 368 -4 l 1,8,-1
 118 -4 l 1,9,-1
 118 122 l 1,10,-1
 -7 122 l 1,11,-1
 -7 754 l 1,12,-1
 118 754 l 1,13,-1
 118 879 l 1,14,-1
 625 879 l 1,15,-1
 625 -254 l 1,16,-1
 500 -254 l 1,17,-1
 500 -379 l 1,4,-1
0 875 m 1,18,-1
 118 875 l 1,19,-1
 118 754 l 1,20,-1
 0 754 l 1,21,-1
 0 875 l 1,18,-1
500 -254 m 1,22,-1
 625 -254 l 1,23,-1
 625 -375 l 1,24,-1
 500 -375 l 1,25,-1
 500 -254 l 1,22,-1
0 -125 m 1,26,-1
 118 -125 l 1,27,-1
 118 -379 l 1,28,-1
 0 -379 l 1,29,-1
 0 -125 l 1,26,-1
-7 122 m 1,30,-1
 118 122 l 1,31,-1
 118 -4 l 1,32,-1
 -7 -4 l 1,33,-1
 -7 122 l 1,30,-1
EndSplineSet
Validated: 5
EndChar
StartChar: h
Encoding: 104 104 75
Width: 750
GlyphClass: 1
Flags: W
LayerCount: 2
Fore
SplineSet
250 -4 m 1,0,-1
 -7 -4 l 1,1,-1
 -7 1254 l 1,2,-1
 250 1254 l 1,3,-1
 250 879 l 1,4,-1
 500 879 l 1,5,-1
 500 754 l 1,6,-1
 625 754 l 1,7,-1
 625 -4 l 1,8,-1
 368 -4 l 1,9,-1
 368 622 l 1,10,-1
 250 622 l 1,11,-1
 250 -4 l 1,0,-1
500 879 m 1,12,-1
 625 879 l 1,13,-1
 625 754 l 1,14,-1
 500 754 l 1,15,-1
 500 879 l 1,12,-1
EndSplineSet
Validated: 5
EndChar
StartChar: i
Encoding: 105 105 76
Width: 375
GlyphClass: 1
Flags: W
LayerCount: 2
Fore
SplineSet
250 997 m 1,0,-1
 -7 997 l 1,1,-1
 -7 1254 l 1,2,-1
 250 1254 l 1,3,-1
 250 997 l 1,0,-1
250 -4 m 1,4,-1
 -7 -4 l 1,5,-1
 -7 879 l 1,6,-1
 250 879 l 1,7,-1
 250 -4 l 1,4,-1
EndSplineSet
Validated: 1
EndChar
StartChar: j
Encoding: 106 106 77
Width: 500
GlyphClass: 1
Flags: W
LayerCount: 2
Fore
SplineSet
375 997 m 1,0,-1
 118 997 l 1,1,-1
 118 1254 l 1,2,-1
 375 1254 l 1,3,-1
 375 997 l 1,0,-1
250 -379 m 1,4,-1
 -7 -379 l 1,5,-1
 -7 -122 l 1,6,-1
 118 -122 l 1,7,-1
 118 879 l 1,8,-1
 375 879 l 1,9,-1
 375 -254 l 1,10,-1
 250 -254 l 1,11,-1
 250 -379 l 1,4,-1
250 -254 m 1,12,-1
 375 -254 l 1,13,-1
 375 -375 l 1,14,-1
 250 -375 l 1,15,-1
 250 -254 l 1,12,-1
EndSplineSet
Validated: 5
EndChar
StartChar: k
Encoding: 107 107 78
Width: 750
GlyphClass: 1
Flags: W
LayerCount: 2
Fore
SplineSet
625 -4 m 1,0,-1
 368 -4 l 1,1,-1
 368 372 l 1,2,-1
 250 372 l 1,3,-1
 250 -4 l 1,4,-1
 -7 -4 l 1,5,-1
 -7 1254 l 1,6,-1
 250 1254 l 1,7,-1
 250 629 l 1,8,-1
 368 629 l 1,9,-1
 368 879 l 1,10,-1
 625 879 l 1,11,-1
 625 622 l 1,12,-1
 500 622 l 1,13,-1
 500 379 l 1,14,-1
 625 379 l 1,15,-1
 625 -4 l 1,0,-1
500 500 m 1,16,-1
 625 500 l 1,17,-1
 625 379 l 1,18,-1
 500 379 l 1,19,-1
 500 500 l 1,16,-1
EndSplineSet
Validated: 5
EndChar
StartChar: m
Encoding: 109 109 80
Width: 1125
GlyphClass: 1
Flags: W
LayerCount: 2
Fore
SplineSet
250 -4 m 1,0,-1
 -7 -4 l 1,1,-1
 -7 879 l 1,2,-1
 875 879 l 1,3,-1
 875 754 l 1,4,-1
 1000 754 l 1,5,-1
 1000 -4 l 1,6,-1
 743 -4 l 1,7,-1
 743 622 l 1,8,-1
 625 622 l 1,9,-1
 625 -4 l 1,10,-1
 368 -4 l 1,11,-1
 368 622 l 1,12,-1
 250 622 l 1,13,-1
 250 -4 l 1,0,-1
875 879 m 1,14,-1
 1000 879 l 1,15,-1
 1000 750 l 1,16,-1
 875 750 l 1,17,-1
 875 879 l 1,14,-1
EndSplineSet
Validated: 5
EndChar
StartChar: n
Encoding: 110 110 81
Width: 750
GlyphClass: 1
Flags: W
LayerCount: 2
Fore
SplineSet
250 -4 m 1,0,-1
 -7 -4 l 1,1,-1
 -7 879 l 1,2,-1
 500 879 l 1,3,-1
 500 754 l 1,4,-1
 625 754 l 1,5,-1
 625 -4 l 1,6,-1
 368 -4 l 1,7,-1
 368 622 l 1,8,-1
 250 622 l 1,9,-1
 250 -4 l 1,0,-1
500 879 m 1,10,-1
 625 879 l 1,11,-1
 625 754 l 1,12,-1
 500 754 l 1,13,-1
 500 879 l 1,10,-1
EndSplineSet
Validated: 5
EndChar
StartChar: o
Encoding: 111 111 82
Width: 750
GlyphClass: 1
Flags: W
LayerCount: 2
Fore
SplineSet
250 254 m 1,0,-1
 368 254 l 1,1,-1
 368 622 l 1,2,-1
 250 622 l 1,3,-1
 250 254 l 1,0,-1
118 -4 m 1,4,-1
 118 122 l 1,5,-1
 -7 122 l 1,6,-1
 -7 754 l 1,7,-1
 118 754 l 1,8,-1
 118 879 l 1,9,-1
 500 879 l 1,10,-1
 500 754 l 1,11,-1
 625 754 l 1,12,-1
 625 122 l 1,13,-1
 500 122 l 1,14,-1
 500 -4 l 1,15,-1
 118 -4 l 1,4,-1
0 875 m 1,16,-1
 125 875 l 1,17,-1
 125 750 l 1,18,-1
 0 750 l 1,19,-1
 0 875 l 1,16,-1
500 879 m 1,20,-1
 625 879 l 1,21,-1
 625 750 l 1,22,-1
 500 750 l 1,23,-1
 500 879 l 1,20,-1
500 122 m 1,24,-1
 625 122 l 1,25,-1
 625 0 l 1,26,-1
 500 0 l 1,27,-1
 500 122 l 1,24,-1
-7 122 m 1,28,-1
 118 122 l 1,29,-1
 118 -4 l 1,30,-1
 -7 -4 l 1,31,-1
 -7 122 l 1,28,-1
EndSplineSet
Validated: 5
EndChar
StartChar: p
Encoding: 112 112 83
Width: 750
GlyphClass: 1
Flags: W
LayerCount: 2
Fore
SplineSet
250 622 m 1,0,-1
 250 254 l 1,1,-1
 368 254 l 1,2,-1
 368 622 l 1,3,-1
 250 622 l 1,0,-1
250 -379 m 1,4,-1
 -7 -379 l 1,5,-1
 -7 879 l 1,6,-1
 500 879 l 1,7,-1
 500 754 l 1,8,-1
 625 754 l 1,9,-1
 625 122 l 1,10,-1
 500 122 l 1,11,-1
 500 -4 l 1,12,-1
 250 -4 l 1,13,-1
 250 -379 l 1,4,-1
500 879 m 1,14,-1
 625 879 l 1,15,-1
 625 754 l 1,16,-1
 500 754 l 1,17,-1
 500 879 l 1,14,-1
500 125 m 1,18,-1
 625 125 l 1,19,-1
 625 -4 l 1,20,-1
 500 -4 l 1,21,-1
 500 125 l 1,18,-1
EndSplineSet
Validated: 5
EndChar
StartChar: r
Encoding: 114 114 85
Width: 625
GlyphClass: 1
Flags: W
LayerCount: 2
Fore
SplineSet
250 -4 m 1,0,-1
 -7 -4 l 1,1,-1
 -7 879 l 1,2,-1
 500 879 l 1,3,-1
 500 622 l 1,4,-1
 250 622 l 1,5,-1
 250 -4 l 1,0,-1
EndSplineSet
Validated: 1
EndChar
StartChar: s
Encoding: 115 115 86
Width: 750
GlyphClass: 1
Flags: W
LayerCount: 2
Fore
SplineSet
500 -4 m 1,0,-1
 -7 -4 l 1,1,-1
 -7 254 l 1,2,-1
 368 254 l 1,3,-1
 368 372 l 1,4,-1
 118 372 l 1,5,-1
 118 497 l 1,6,-1
 -7 497 l 1,7,-1
 -7 754 l 1,8,-1
 118 754 l 1,9,-1
 118 879 l 1,10,-1
 625 879 l 1,11,-1
 625 622 l 1,12,-1
 250 622 l 1,13,-1
 250 504 l 1,14,-1
 500 504 l 1,15,-1
 500 379 l 1,16,-1
 625 379 l 1,17,-1
 625 122 l 1,18,-1
 500 122 l 1,19,-1
 500 -4 l 1,0,-1
0 875 m 1,20,-1
 118 875 l 1,21,-1
 118 754 l 1,22,-1
 0 754 l 1,23,-1
 0 875 l 1,20,-1
0 500 m 1,24,-1
 118 500 l 1,25,-1
 118 372 l 1,26,-1
 0 372 l 1,27,-1
 0 500 l 1,24,-1
500 504 m 1,28,-1
 625 504 l 1,29,-1
 625 379 l 1,30,-1
 500 379 l 1,31,-1
 500 504 l 1,28,-1
500 122 m 1,32,-1
 625 122 l 1,33,-1
 625 0 l 1,34,-1
 500 0 l 1,35,-1
 500 122 l 1,32,-1
EndSplineSet
Validated: 5
EndChar
StartChar: v
Encoding: 118 118 89
Width: 750
GlyphClass: 1
Flags: W
LayerCount: 2
Fore
SplineSet
-7 -4 m 1,0,-1
 -7 879 l 1,1,-1
 250 879 l 1,2,-1
 250 254 l 1,3,-1
 368 254 l 1,4,-1
 368 879 l 1,5,-1
 625 879 l 1,6,-1
 625 247 l 1,7,-1
 500 247 l 1,8,-1
 500 122 l 1,9,-1
 375 122 l 1,10,-1
 375 -4 l 1,11,-1
 -7 -4 l 1,0,-1
EndSplineSet
Validated: 1
EndChar
StartChar: x
Encoding: 120 120 91
Width: 750
GlyphClass: 1
Flags: W
LayerCount: 2
Fore
SplineSet
250 -4 m 1,0,-1
 -7 -4 l 1,1,-1
 -7 379 l 1,2,-1
 118 379 l 1,3,-1
 118 622 l 1,4,-1
 -7 622 l 1,5,-1
 -7 879 l 1,6,-1
 250 879 l 1,7,-1
 250 629 l 1,8,-1
 368 629 l 1,9,-1
 368 879 l 1,10,-1
 625 879 l 1,11,-1
 625 622 l 1,12,-1
 500 622 l 1,13,-1
 500 379 l 1,14,-1
 625 379 l 1,15,-1
 625 -4 l 1,16,-1
 368 -4 l 1,17,-1
 368 372 l 1,18,-1
 250 372 l 1,19,-1
 250 -4 l 1,0,-1
500 622 m 1,20,-1
 625 622 l 1,21,-1
 625 500 l 1,22,-1
 500 500 l 1,23,-1
 500 622 l 1,20,-1
-7 622 m 1,24,-1
 125 622 l 1,25,-1
 125 500 l 1,26,-1
 -7 500 l 1,27,-1
 -7 622 l 1,24,-1
250 372 m 1,28,-1
 375 372 l 1,29,-1
 375 250 l 1,30,-1
 250 250 l 1,31,-1
 250 372 l 1,28,-1
EndSplineSet
Validated: 5
EndChar
StartChar: z
Encoding: 122 122 93
Width: 750
GlyphClass: 1
Flags: W
LayerCount: 2
Fore
SplineSet
-7 -4 m 1,0,-1
 -7 504 l 1,1,-1
 368 504 l 1,2,-1
 368 622 l 1,3,-1
 -7 622 l 1,4,-1
 -7 879 l 1,5,-1
 625 879 l 1,6,-1
 625 372 l 1,7,-1
 250 372 l 1,8,-1
 250 254 l 1,9,-1
 625 254 l 1,10,-1
 625 -4 l 1,11,-1
 -7 -4 l 1,0,-1
EndSplineSet
Validated: 1
EndChar
StartChar: braceleft
Encoding: 123 123 94
Width: 625
GlyphClass: 1
Flags: W
LayerCount: 2
Fore
SplineSet
500 -129 m 1,0,-1
 118 -129 l 1,1,-1
 118 497 l 1,2,-1
 -7 497 l 1,3,-1
 -7 754 l 1,4,-1
 118 754 l 1,5,-1
 118 1379 l 1,6,-1
 500 1379 l 1,7,-1
 500 1122 l 1,8,-1
 375 1122 l 1,9,-1
 375 129 l 1,10,-1
 500 129 l 1,11,-1
 500 -129 l 1,0,-1
EndSplineSet
Validated: 1
EndChar
StartChar: braceright
Encoding: 125 125 96
Width: 625
GlyphClass: 1
Flags: W
LayerCount: 2
Fore
SplineSet
-7 -129 m 1,0,-1
 375 -129 l 1,1,-1
 375 497 l 1,2,-1
 500 497 l 1,3,-1
 500 754 l 1,4,-1
 375 754 l 1,5,-1
 375 1379 l 1,6,-1
 -7 1379 l 1,7,-1
 -7 1122 l 1,8,-1
 118 1122 l 1,9,-1
 118 129 l 1,10,-1
 -7 129 l 1,11,-1
 -7 -129 l 1,0,-1
EndSplineSet
Validated: 9
EndChar
StartChar: asciitilde
Encoding: 126 126 97
Width: 1125
GlyphClass: 1
Flags: W
LayerCount: 2
Fore
SplineSet
250 372 m 1,0,-1
 -7 372 l 1,1,-1
 -7 879 l 1,2,-1
 625 879 l 1,3,-1
 625 629 l 1,4,-1
 743 629 l 1,5,-1
 743 879 l 1,6,-1
 1000 879 l 1,7,-1
 1000 372 l 1,8,-1
 368 372 l 1,9,-1
 368 622 l 1,10,-1
 250 622 l 1,11,-1
 250 372 l 1,0,-1
EndSplineSet
Validated: 1
EndChar
StartChar: exclamdown
Encoding: 161 161 99
Width: 375
GlyphClass: 1
Flags: W
LayerCount: 2
Fore
SplineSet
250 499 m 1,0,-1
 -7 499 l 1,1,-1
 -7 -384 l 1,2,-1
 250 -384 l 1,3,-1
 250 499 l 1,0,-1
250 874 m 1,4,-1
 -7 874 l 1,5,-1
 -7 617 l 1,6,-1
 250 617 l 1,7,-1
 250 874 l 1,4,-1
EndSplineSet
Validated: 9
EndChar
StartChar: sterling
Encoding: 163 163 100
Width: 1000
GlyphClass: 1
Flags: W
LayerCount: 2
Fore
SplineSet
-7 -4 m 1,0,-1
 -7 254 l 1,1,-1
 118 254 l 1,2,-1
 118 497 l 1,3,-1
 -7 497 l 1,4,-1
 -7 754 l 1,5,-1
 118 754 l 1,6,-1
 118 1254 l 1,7,-1
 750 1254 l 1,8,-1
 750 872 l 1,9,-1
 493 872 l 1,10,-1
 493 997 l 1,11,-1
 375 997 l 1,12,-1
 375 754 l 1,13,-1
 625 754 l 1,14,-1
 625 497 l 1,15,-1
 375 497 l 1,16,-1
 375 254 l 1,17,-1
 875 254 l 1,18,-1
 875 -4 l 1,19,-1
 -7 -4 l 1,0,-1
EndSplineSet
Validated: 1
EndChar
StartChar: yen
Encoding: 165 165 101
Width: 875
GlyphClass: 1
Flags: W
LayerCount: 2
Fore
SplineSet
243 372 m 1,0,-1
 -7 372 l 1,1,-1
 -7 629 l 1,2,-1
 243 629 l 1,3,-1
 243 747 l 1,4,-1
 -7 747 l 1,5,-1
 -7 1254 l 1,6,-1
 250 1254 l 1,7,-1
 250 1004 l 1,8,-1
 493 1004 l 1,9,-1
 493 1254 l 1,10,-1
 750 1254 l 1,11,-1
 750 747 l 1,12,-1
 500 747 l 1,13,-1
 500 629 l 1,14,-1
 750 629 l 1,15,-1
 750 372 l 1,16,-1
 500 372 l 1,17,-1
 500 -4 l 1,18,-1
 243 -4 l 1,19,-1
 243 372 l 1,0,-1
EndSplineSet
Validated: 1
EndChar
StartChar: copyright
Encoding: 169 169 102
Width: 1500
GlyphClass: 1
Flags: W
LayerCount: 2
Fore
SplineSet
250 124 m 1,0,-1
 1118 124 l 1,1,-1
 1118 1117 l 1,2,-1
 250 1117 l 1,3,-1
 250 124 l 1,0,-1
1375 -134 m 1,4,-1
 -7 -134 l 1,5,-1
 -7 1374 l 1,6,-1
 1375 1374 l 1,7,-1
 1375 -134 l 1,4,-1
368 242 m 1,8,-1
 368 999 l 1,9,-1
 1000 999 l 1,10,-1
 1000 742 l 1,11,-1
 625 742 l 1,12,-1
 625 499 l 1,13,-1
 1000 499 l 1,14,-1
 1000 242 l 1,15,-1
 368 242 l 1,8,-1
EndSplineSet
Validated: 1
EndChar
StartChar: registered
Encoding: 174 174 103
Width: 1500
GlyphClass: 1
Flags: W
LayerCount: 2
Fore
SplineSet
250 124 m 1,0,-1
 1118 124 l 1,1,-1
 1118 1117 l 1,2,-1
 250 1117 l 1,3,-1
 250 124 l 1,0,-1
-7 -134 m 1,4,-1
 -7 1374 l 1,5,-1
 1375 1374 l 1,6,-1
 1375 -134 l 1,7,-1
 -7 -134 l 1,4,-1
625 742 m 1,8,-1
 625 624 l 1,9,-1
 743 624 l 1,10,-1
 743 742 l 1,11,-1
 625 742 l 1,8,-1
625 242 m 1,12,-1
 368 242 l 1,13,-1
 368 999 l 1,14,-1
 1000 999 l 1,15,-1
 1000 617 l 1,16,-1
 875 617 l 1,17,-1
 875 499 l 1,18,-1
 1000 499 l 1,19,-1
 1000 242 l 1,20,-1
 743 242 l 1,21,-1
 743 492 l 1,22,-1
 625 492 l 1,23,-1
 625 242 l 1,12,-1
EndSplineSet
Validated: 1
EndChar
StartChar: ordmasculine
Encoding: 186 186 104
Width: 750
GlyphClass: 1
Flags: W
LayerCount: 2
Fore
SplineSet
250 879 m 1,0,-1
 368 879 l 1,1,-1
 368 1122 l 1,2,-1
 250 1122 l 1,3,-1
 250 879 l 1,0,-1
-7 1254 m 1,4,-1
 625 1254 l 1,5,-1
 625 747 l 1,6,-1
 -7 747 l 1,7,-1
 -7 1254 l 1,4,-1
EndSplineSet
Validated: 1
EndChar
StartChar: questiondown
Encoding: 191 191 105
Width: 875
GlyphClass: 1
Flags: W
LayerCount: 2
Fore
SplineSet
243 499 m 1,0,-1
 500 499 l 1,1,-1
 500 117 l 1,2,-1
 250 117 l 1,3,-1
 250 -127 l 1,4,-1
 493 -127 l 1,5,-1
 493 -2 l 1,6,-1
 750 -2 l 1,7,-1
 750 -384 l 1,8,-1
 -7 -384 l 1,9,-1
 -7 374 l 1,10,-1
 243 374 l 1,11,-1
 243 499 l 1,0,-1
243 874 m 1,12,-1
 500 874 l 1,13,-1
 500 617 l 1,14,-1
 243 617 l 1,15,-1
 243 874 l 1,12,-1
EndSplineSet
Validated: 1
EndChar
StartChar: Agrave
Encoding: 192 192 106
Width: 875
GlyphClass: 1
Flags: W
LayerCount: 2
Fore
SplineSet
250 997 m 1,0,-1
 250 754 l 1,1,-1
 493 754 l 1,2,-1
 493 997 l 1,3,-1
 250 997 l 1,0,-1
250 -4 m 1,4,-1
 -7 -4 l 1,5,-1
 -7 1254 l 1,6,-1
 750 1254 l 1,7,-1
 750 -4 l 1,8,-1
 493 -4 l 1,9,-1
 493 497 l 1,10,-1
 250 497 l 1,11,-1
 250 -4 l 1,4,-1
247 1500 m 1,12,-1
 497 1500 l 1,13,-1
 497 1375 l 1,14,-1
 247 1375 l 1,15,-1
 247 1500 l 1,12,-1
122 1625 m 1,16,-1
 372 1625 l 1,17,-1
 372 1500 l 1,18,-1
 122 1500 l 1,19,-1
 122 1625 l 1,16,-1
EndSplineSet
Validated: 5
EndChar
StartChar: Atilde
Encoding: 195 195 109
Width: 875
GlyphClass: 1
Flags: W
LayerCount: 2
Fore
SplineSet
250 997 m 1,0,-1
 250 754 l 1,1,-1
 493 754 l 1,2,-1
 493 997 l 1,3,-1
 250 997 l 1,0,-1
250 -4 m 1,4,-1
 -7 -4 l 1,5,-1
 -7 1254 l 1,6,-1
 750 1254 l 1,7,-1
 750 -4 l 1,8,-1
 493 -4 l 1,9,-1
 493 497 l 1,10,-1
 250 497 l 1,11,-1
 250 -4 l 1,4,-1
122 1500 m 1,12,-1
 247 1500 l 1,13,-1
 247 1375 l 1,14,-1
 122 1375 l 1,15,-1
 122 1500 l 1,12,-1
247 1625 m 1,16,-1
 497 1625 l 1,17,-1
 497 1500 l 1,18,-1
 247 1500 l 1,19,-1
 247 1625 l 1,16,-1
372 1500 m 1,20,-1
 622 1500 l 1,21,-1
 622 1375 l 1,22,-1
 372 1375 l 1,23,-1
 372 1500 l 1,20,-1
622 1625 m 1,24,-1
 747 1625 l 1,25,-1
 747 1500 l 1,26,-1
 622 1500 l 1,27,-1
 622 1625 l 1,24,-1
EndSplineSet
Validated: 5
EndChar
StartChar: Adieresis
Encoding: 196 196 110
Width: 875
GlyphClass: 1
Flags: W
LayerCount: 2
Fore
SplineSet
250 997 m 1,0,-1
 250 754 l 1,1,-1
 493 754 l 1,2,-1
 493 997 l 1,3,-1
 250 997 l 1,0,-1
250 -4 m 1,4,-1
 -7 -4 l 1,5,-1
 -7 1254 l 1,6,-1
 750 1254 l 1,7,-1
 750 -4 l 1,8,-1
 493 -4 l 1,9,-1
 493 497 l 1,10,-1
 250 497 l 1,11,-1
 250 -4 l 1,4,-1
122 1625 m 1,12,-1
 247 1625 l 1,13,-1
 247 1375 l 1,14,-1
 122 1375 l 1,15,-1
 122 1625 l 1,12,-1
497 1625 m 1,16,-1
 622 1625 l 1,17,-1
 622 1375 l 1,18,-1
 497 1375 l 1,19,-1
 497 1625 l 1,16,-1
EndSplineSet
Validated: 1
EndChar
StartChar: Aring
Encoding: 197 197 111
Width: 875
GlyphClass: 1
Flags: W
LayerCount: 2
Fore
SplineSet
375 1504 m 1,0,-1
 493 1504 l 1,1,-1
 493 1622 l 1,2,-1
 375 1622 l 1,3,-1
 375 1504 l 1,0,-1
625 1372 m 1,4,-1
 243 1372 l 1,5,-1
 243 1754 l 1,6,-1
 625 1754 l 1,7,-1
 625 1372 l 1,4,-1
250 997 m 1,8,-1
 250 754 l 1,9,-1
 493 754 l 1,10,-1
 493 997 l 1,11,-1
 250 997 l 1,8,-1
250 -4 m 1,12,-1
 -7 -4 l 1,13,-1
 -7 1254 l 1,14,-1
 750 1254 l 1,15,-1
 750 -4 l 1,16,-1
 493 -4 l 1,17,-1
 493 497 l 1,18,-1
 250 497 l 1,19,-1
 250 -4 l 1,12,-1
EndSplineSet
Validated: 1
EndChar
StartChar: AE
Encoding: 198 198 112
Width: 1250
GlyphClass: 1
Flags: W
LayerCount: 2
Fore
SplineSet
250 997 m 1,0,-1
 250 754 l 1,1,-1
 493 754 l 1,2,-1
 493 997 l 1,3,-1
 250 997 l 1,0,-1
250 -4 m 1,4,-1
 -7 -4 l 1,5,-1
 -7 1254 l 1,6,-1
 1125 1254 l 1,7,-1
 1125 997 l 1,8,-1
 750 997 l 1,9,-1
 750 754 l 1,10,-1
 1125 754 l 1,11,-1
 1125 497 l 1,12,-1
 750 497 l 1,13,-1
 750 254 l 1,14,-1
 1125 254 l 1,15,-1
 1125 -4 l 1,16,-1
 493 -4 l 1,17,-1
 493 497 l 1,18,-1
 250 497 l 1,19,-1
 250 -4 l 1,4,-1
EndSplineSet
Validated: 1
EndChar
StartChar: Egrave
Encoding: 200 200 114
Width: 750
GlyphClass: 1
Flags: W
LayerCount: 2
Fore
SplineSet
625 -4 m 1,0,-1
 -7 -4 l 1,1,-1
 -7 1254 l 1,2,-1
 625 1254 l 1,3,-1
 625 997 l 1,4,-1
 250 997 l 1,5,-1
 250 754 l 1,6,-1
 625 754 l 1,7,-1
 625 497 l 1,8,-1
 250 497 l 1,9,-1
 250 254 l 1,10,-1
 625 254 l 1,11,-1
 625 -4 l 1,0,-1
125 1500 m 1,12,-1
 375 1500 l 1,13,-1
 375 1375 l 1,14,-1
 125 1375 l 1,15,-1
 125 1500 l 1,12,-1
0 1625 m 1,16,-1
 250 1625 l 1,17,-1
 250 1500 l 1,18,-1
 0 1500 l 1,19,-1
 0 1625 l 1,16,-1
EndSplineSet
Validated: 5
EndChar
StartChar: Ecircumflex
Encoding: 202 202 116
Width: 750
GlyphClass: 1
Flags: W
LayerCount: 2
Fore
SplineSet
625 -4 m 1,0,-1
 -7 -4 l 1,1,-1
 -7 1254 l 1,2,-1
 625 1254 l 1,3,-1
 625 997 l 1,4,-1
 250 997 l 1,5,-1
 250 754 l 1,6,-1
 625 754 l 1,7,-1
 625 497 l 1,8,-1
 250 497 l 1,9,-1
 250 254 l 1,10,-1
 625 254 l 1,11,-1
 625 -4 l 1,0,-1
0 1500 m 1,12,-1
 250 1500 l 1,13,-1
 250 1375 l 1,14,-1
 0 1375 l 1,15,-1
 0 1500 l 1,12,-1
375 1500 m 1,16,-1
 625 1500 l 1,17,-1
 625 1375 l 1,18,-1
 375 1375 l 1,19,-1
 375 1500 l 1,16,-1
125 1625 m 1,20,-1
 500 1625 l 1,21,-1
 500 1500 l 1,22,-1
 125 1500 l 1,23,-1
 125 1625 l 1,20,-1
EndSplineSet
Validated: 5
EndChar
StartChar: Edieresis
Encoding: 203 203 117
Width: 750
GlyphClass: 1
Flags: W
LayerCount: 2
Fore
SplineSet
625 -4 m 1,0,-1
 -7 -4 l 1,1,-1
 -7 1254 l 1,2,-1
 625 1254 l 1,3,-1
 625 997 l 1,4,-1
 250 997 l 1,5,-1
 250 754 l 1,6,-1
 625 754 l 1,7,-1
 625 497 l 1,8,-1
 250 497 l 1,9,-1
 250 254 l 1,10,-1
 625 254 l 1,11,-1
 625 -4 l 1,0,-1
125 1625 m 1,12,-1
 250 1625 l 1,13,-1
 250 1375 l 1,14,-1
 125 1375 l 1,15,-1
 125 1625 l 1,12,-1
375 1625 m 1,16,-1
 500 1625 l 1,17,-1
 500 1375 l 1,18,-1
 375 1375 l 1,19,-1
 375 1625 l 1,16,-1
EndSplineSet
Validated: 1
EndChar
StartChar: Icircumflex
Encoding: 206 206 120
Width: 375
GlyphClass: 1
Flags: W
LayerCount: 2
Fore
SplineSet
-132 1372 m 1,0,-1
 -132 1504 l 1,1,-1
 -7 1504 l 1,2,-1
 -7 1629 l 1,3,-1
 375 1629 l 1,4,-1
 375 1504 l 1,5,-1
 500 1504 l 1,6,-1
 500 1372 l 1,7,-1
 243 1372 l 1,8,-1
 243 1497 l 1,9,-1
 125 1497 l 1,10,-1
 125 1372 l 1,11,-1
 -132 1372 l 1,0,-1
250 -4 m 1,12,-1
 -7 -4 l 1,13,-1
 -7 1254 l 1,14,-1
 250 1254 l 1,15,-1
 250 -4 l 1,12,-1
EndSplineSet
Validated: 1
EndChar
StartChar: Idieresis
Encoding: 207 207 121
Width: 375
GlyphClass: 1
Flags: W
LayerCount: 2
Fore
SplineSet
375 1372 m 1,0,-1
 243 1372 l 1,1,-1
 243 1629 l 1,2,-1
 375 1629 l 1,3,-1
 375 1372 l 1,0,-1
0 1372 m 1,4,-1
 -132 1372 l 1,5,-1
 -132 1629 l 1,6,-1
 0 1629 l 1,7,-1
 0 1372 l 1,4,-1
250 -4 m 1,8,-1
 -7 -4 l 1,9,-1
 -7 1254 l 1,10,-1
 250 1254 l 1,11,-1
 250 -4 l 1,8,-1
EndSplineSet
Validated: 1
EndChar
StartChar: Ntilde
Encoding: 209 209 122
Width: 875
GlyphClass: 1
Flags: W
LayerCount: 2
Fore
SplineSet
250 -4 m 1,0,-1
 -7 -4 l 1,1,-1
 -7 1254 l 1,2,-1
 750 1254 l 1,3,-1
 750 -4 l 1,4,-1
 493 -4 l 1,5,-1
 493 997 l 1,6,-1
 250 997 l 1,7,-1
 250 -4 l 1,0,-1
122 1500 m 1,8,-1
 247 1500 l 1,9,-1
 247 1375 l 1,10,-1
 122 1375 l 1,11,-1
 122 1500 l 1,8,-1
247 1625 m 1,12,-1
 497 1625 l 1,13,-1
 497 1500 l 1,14,-1
 247 1500 l 1,15,-1
 247 1625 l 1,12,-1
372 1500 m 1,16,-1
 622 1500 l 1,17,-1
 622 1375 l 1,18,-1
 372 1375 l 1,19,-1
 372 1500 l 1,16,-1
622 1625 m 1,20,-1
 747 1625 l 1,21,-1
 747 1500 l 1,22,-1
 622 1500 l 1,23,-1
 622 1625 l 1,20,-1
EndSplineSet
Validated: 5
EndChar
StartChar: Ocircumflex
Encoding: 212 212 125
Width: 875
GlyphClass: 1
Flags: W
LayerCount: 2
Fore
SplineSet
250 254 m 1,0,-1
 493 254 l 1,1,-1
 493 997 l 1,2,-1
 250 997 l 1,3,-1
 250 254 l 1,0,-1
118 -4 m 1,4,-1
 118 122 l 1,5,-1
 -7 122 l 1,6,-1
 -7 1129 l 1,7,-1
 118 1129 l 1,8,-1
 118 1254 l 1,9,-1
 625 1254 l 1,10,-1
 625 1129 l 1,11,-1
 750 1129 l 1,12,-1
 750 122 l 1,13,-1
 625 122 l 1,14,-1
 625 -4 l 1,15,-1
 118 -4 l 1,4,-1
0 1250 m 1,16,-1
 118 1250 l 1,17,-1
 118 1129 l 1,18,-1
 0 1129 l 1,19,-1
 0 1250 l 1,16,-1
625 1254 m 1,20,-1
 750 1254 l 1,21,-1
 750 1129 l 1,22,-1
 625 1129 l 1,23,-1
 625 1254 l 1,20,-1
625 122 m 1,24,-1
 750 122 l 1,25,-1
 750 0 l 1,26,-1
 625 0 l 1,27,-1
 625 122 l 1,24,-1
-7 122 m 1,28,-1
 118 122 l 1,29,-1
 118 -4 l 1,30,-1
 -7 -4 l 1,31,-1
 -7 122 l 1,28,-1
125 1500 m 1,32,-1
 375 1500 l 1,33,-1
 375 1375 l 1,34,-1
 125 1375 l 1,35,-1
 125 1500 l 1,32,-1
250 1625 m 1,36,-1
 625 1625 l 1,37,-1
 625 1500 l 1,38,-1
 250 1500 l 1,39,-1
 250 1625 l 1,36,-1
500 1500 m 1,40,-1
 750 1500 l 1,41,-1
 750 1375 l 1,42,-1
 500 1375 l 1,43,-1
 500 1500 l 1,40,-1
EndSplineSet
Validated: 5
EndChar
StartChar: Odieresis
Encoding: 214 214 127
Width: 875
GlyphClass: 1
Flags: W
LayerCount: 2
Fore
SplineSet
250 254 m 1,0,-1
 493 254 l 1,1,-1
 493 997 l 1,2,-1
 250 997 l 1,3,-1
 250 254 l 1,0,-1
118 -4 m 1,4,-1
 118 122 l 1,5,-1
 -7 122 l 1,6,-1
 -7 1129 l 1,7,-1
 118 1129 l 1,8,-1
 118 1254 l 1,9,-1
 625 1254 l 1,10,-1
 625 1129 l 1,11,-1
 750 1129 l 1,12,-1
 750 122 l 1,13,-1
 625 122 l 1,14,-1
 625 -4 l 1,15,-1
 118 -4 l 1,4,-1
0 1250 m 1,16,-1
 118 1250 l 1,17,-1
 118 1129 l 1,18,-1
 0 1129 l 1,19,-1
 0 1250 l 1,16,-1
625 1254 m 1,20,-1
 750 1254 l 1,21,-1
 750 1129 l 1,22,-1
 625 1129 l 1,23,-1
 625 1254 l 1,20,-1
625 122 m 1,24,-1
 750 122 l 1,25,-1
 750 0 l 1,26,-1
 625 0 l 1,27,-1
 625 122 l 1,24,-1
-7 122 m 1,28,-1
 118 122 l 1,29,-1
 118 -4 l 1,30,-1
 -7 -4 l 1,31,-1
 -7 122 l 1,28,-1
125 1625 m 1,32,-1
 250 1625 l 1,33,-1
 250 1375 l 1,34,-1
 125 1375 l 1,35,-1
 125 1625 l 1,32,-1
500 1625 m 1,36,-1
 625 1625 l 1,37,-1
 625 1375 l 1,38,-1
 500 1375 l 1,39,-1
 500 1625 l 1,36,-1
EndSplineSet
Validated: 5
EndChar
StartChar: Oslash
Encoding: 216 216 128
Width: 875
GlyphClass: 1
Flags: W
LayerCount: 2
Fore
SplineSet
-7 -4 m 1,0,-1
 -7 1129 l 1,1,-1
 0 1129 l 1,2,-1
 0 1250 l 1,3,-1
 118 1250 l 1,4,-1
 118 1254 l 1,5,-1
 750 1254 l 1,6,-1
 750 0 l 1,7,-1
 625 0 l 1,8,-1
 625 -4 l 1,9,-1
 -7 -4 l 1,0,-1
375 625 m 1,10,-1
 375 500 l 1,11,-1
 250 500 l 1,12,-1
 250 254 l 1,13,-1
 493 254 l 1,14,-1
 493 625 l 1,15,-1
 375 625 l 1,10,-1
250 750 m 1,16,-1
 375 750 l 1,17,-1
 375 875 l 1,18,-1
 493 875 l 1,19,-1
 493 997 l 1,20,-1
 250 997 l 1,21,-1
 250 750 l 1,16,-1
EndSplineSet
Validated: 1
EndChar
StartChar: Udieresis
Encoding: 220 220 132
Width: 875
GlyphClass: 1
Flags: W
LayerCount: 2
Fore
SplineSet
118 -4 m 1,0,-1
 118 122 l 1,1,-1
 -7 122 l 1,2,-1
 -7 1254 l 1,3,-1
 250 1254 l 1,4,-1
 250 254 l 1,5,-1
 493 254 l 1,6,-1
 493 1254 l 1,7,-1
 750 1254 l 1,8,-1
 750 122 l 1,9,-1
 625 122 l 1,10,-1
 625 -4 l 1,11,-1
 118 -4 l 1,0,-1
-7 122 m 1,12,-1
 118 122 l 1,13,-1
 118 -4 l 1,14,-1
 -7 -4 l 1,15,-1
 -7 122 l 1,12,-1
625 122 m 1,16,-1
 750 122 l 1,17,-1
 750 0 l 1,18,-1
 625 0 l 1,19,-1
 625 122 l 1,16,-1
125 1625 m 1,20,-1
 250 1625 l 1,21,-1
 250 1375 l 1,22,-1
 125 1375 l 1,23,-1
 125 1625 l 1,20,-1
500 1625 m 1,24,-1
 625 1625 l 1,25,-1
 625 1375 l 1,26,-1
 500 1375 l 1,27,-1
 500 1625 l 1,24,-1
EndSplineSet
Validated: 5
EndChar
StartChar: Yacute
Encoding: 221 221 133
Width: 875
GlyphClass: 1
Flags: W
LayerCount: 2
Fore
SplineSet
500 -4 m 1,0,-1
 243 -4 l 1,1,-1
 243 497 l 1,2,-1
 -7 497 l 1,3,-1
 -7 1254 l 1,4,-1
 250 1254 l 1,5,-1
 250 754 l 1,6,-1
 493 754 l 1,7,-1
 493 1254 l 1,8,-1
 750 1254 l 1,9,-1
 750 497 l 1,10,-1
 500 497 l 1,11,-1
 500 -4 l 1,0,-1
247 1500 m 1,12,-1
 497 1500 l 1,13,-1
 497 1375 l 1,14,-1
 247 1375 l 1,15,-1
 247 1500 l 1,12,-1
372 1625 m 1,16,-1
 622 1625 l 1,17,-1
 622 1500 l 1,18,-1
 372 1500 l 1,19,-1
 372 1625 l 1,16,-1
EndSplineSet
Validated: 5
EndChar
StartChar: germandbls
Encoding: 223 223 134
Width: 875
GlyphClass: 1
Flags: W
LayerCount: 2
Fore
SplineSet
250 997 m 1,0,-1
 250 879 l 1,1,-1
 368 879 l 1,2,-1
 368 997 l 1,3,-1
 250 997 l 1,0,-1
368 -4 m 1,4,-1
 368 254 l 1,5,-1
 493 254 l 1,6,-1
 493 622 l 1,7,-1
 250 622 l 1,8,-1
 250 -4 l 1,9,-1
 -7 -4 l 1,10,-1
 -7 1254 l 1,11,-1
 625 1254 l 1,12,-1
 625 872 l 1,13,-1
 500 872 l 1,14,-1
 500 754 l 1,15,-1
 750 754 l 1,16,-1
 750 -4 l 1,17,-1
 368 -4 l 1,4,-1
EndSplineSet
Validated: 1
EndChar
StartChar: agrave
Encoding: 224 224 135
Width: 750
GlyphClass: 1
Flags: W
LayerCount: 2
Fore
SplineSet
250 372 m 1,0,-1
 250 254 l 1,1,-1
 368 254 l 1,2,-1
 368 372 l 1,3,-1
 250 372 l 1,0,-1
-7 -4 m 1,4,-1
 -7 504 l 1,5,-1
 368 504 l 1,6,-1
 368 622 l 1,7,-1
 -7 622 l 1,8,-1
 -7 879 l 1,9,-1
 625 879 l 1,10,-1
 625 -4 l 1,11,-1
 -7 -4 l 1,4,-1
125 1125 m 1,12,-1
 375 1125 l 1,13,-1
 375 1000 l 1,14,-1
 125 1000 l 1,15,-1
 125 1125 l 1,12,-1
0 1250 m 1,16,-1
 250 1250 l 1,17,-1
 250 1125 l 1,18,-1
 0 1125 l 1,19,-1
 0 1250 l 1,16,-1
EndSplineSet
Validated: 5
EndChar
StartChar: acircumflex
Encoding: 226 226 137
Width: 750
GlyphClass: 1
Flags: W
LayerCount: 2
Fore
SplineSet
250 372 m 1,0,-1
 250 254 l 1,1,-1
 368 254 l 1,2,-1
 368 372 l 1,3,-1
 250 372 l 1,0,-1
-7 -4 m 1,4,-1
 -7 504 l 1,5,-1
 368 504 l 1,6,-1
 368 622 l 1,7,-1
 -7 622 l 1,8,-1
 -7 879 l 1,9,-1
 625 879 l 1,10,-1
 625 -4 l 1,11,-1
 -7 -4 l 1,4,-1
0 1125 m 1,12,-1
 250 1125 l 1,13,-1
 250 1000 l 1,14,-1
 0 1000 l 1,15,-1
 0 1125 l 1,12,-1
125 1250 m 1,16,-1
 500 1250 l 1,17,-1
 500 1125 l 1,18,-1
 125 1125 l 1,19,-1
 125 1250 l 1,16,-1
375 1125 m 1,20,-1
 625 1125 l 1,21,-1
 625 1000 l 1,22,-1
 375 1000 l 1,23,-1
 375 1125 l 1,20,-1
EndSplineSet
Validated: 5
EndChar
StartChar: atilde
Encoding: 227 227 138
Width: 750
GlyphClass: 1
Flags: W
LayerCount: 2
Fore
SplineSet
250 372 m 1,0,-1
 250 254 l 1,1,-1
 368 254 l 1,2,-1
 368 372 l 1,3,-1
 250 372 l 1,0,-1
-7 -4 m 1,4,-1
 -7 504 l 1,5,-1
 368 504 l 1,6,-1
 368 622 l 1,7,-1
 -7 622 l 1,8,-1
 -7 879 l 1,9,-1
 625 879 l 1,10,-1
 625 -4 l 1,11,-1
 -7 -4 l 1,4,-1
0 1125 m 1,12,-1
 125 1125 l 1,13,-1
 125 1000 l 1,14,-1
 0 1000 l 1,15,-1
 0 1125 l 1,12,-1
125 1250 m 1,16,-1
 375 1250 l 1,17,-1
 375 1125 l 1,18,-1
 125 1125 l 1,19,-1
 125 1250 l 1,16,-1
250 1125 m 1,20,-1
 500 1125 l 1,21,-1
 500 1000 l 1,22,-1
 250 1000 l 1,23,-1
 250 1125 l 1,20,-1
500 1250 m 1,24,-1
 625 1250 l 1,25,-1
 625 1125 l 1,26,-1
 500 1125 l 1,27,-1
 500 1250 l 1,24,-1
EndSplineSet
Validated: 5
EndChar
StartChar: adieresis
Encoding: 228 228 139
Width: 750
GlyphClass: 1
Flags: W
LayerCount: 2
Fore
SplineSet
250 372 m 1,0,-1
 250 254 l 1,1,-1
 368 254 l 1,2,-1
 368 372 l 1,3,-1
 250 372 l 1,0,-1
-7 -4 m 1,4,-1
 -7 504 l 1,5,-1
 368 504 l 1,6,-1
 368 622 l 1,7,-1
 -7 622 l 1,8,-1
 -7 879 l 1,9,-1
 625 879 l 1,10,-1
 625 -4 l 1,11,-1
 -7 -4 l 1,4,-1
125 1250 m 1,12,-1
 250 1250 l 1,13,-1
 250 1000 l 1,14,-1
 125 1000 l 1,15,-1
 125 1250 l 1,12,-1
375 1250 m 1,16,-1
 500 1250 l 1,17,-1
 500 1000 l 1,18,-1
 375 1000 l 1,19,-1
 375 1250 l 1,16,-1
EndSplineSet
Validated: 1
EndChar
StartChar: aring
Encoding: 229 229 140
Width: 750
GlyphClass: 1
Flags: W
LayerCount: 2
Fore
SplineSet
250 1129 m 1,0,-1
 368 1129 l 1,1,-1
 368 1247 l 1,2,-1
 250 1247 l 1,3,-1
 250 1129 l 1,0,-1
500 997 m 1,4,-1
 118 997 l 1,5,-1
 118 1379 l 1,6,-1
 500 1379 l 1,7,-1
 500 997 l 1,4,-1
250 254 m 1,8,-1
 368 254 l 1,9,-1
 368 372 l 1,10,-1
 250 372 l 1,11,-1
 250 254 l 1,8,-1
-7 -4 m 1,12,-1
 -7 504 l 1,13,-1
 368 504 l 1,14,-1
 368 622 l 1,15,-1
 -7 622 l 1,16,-1
 -7 879 l 1,17,-1
 625 879 l 1,18,-1
 625 -4 l 1,19,-1
 -7 -4 l 1,12,-1
EndSplineSet
Validated: 1
EndChar
StartChar: ae
Encoding: 230 230 141
Width: 1125
GlyphClass: 1
Flags: W
LayerCount: 2
Fore
SplineSet
250 372 m 1,0,-1
 250 254 l 1,1,-1
 368 254 l 1,2,-1
 368 372 l 1,3,-1
 250 372 l 1,0,-1
625 500 m 1,4,-1
 750 500 l 1,5,-1
 750 625 l 1,6,-1
 625 625 l 1,7,-1
 625 500 l 1,4,-1
625 250 m 1,8,-1
 1000 250 l 1,9,-1
 1000 0 l 1,10,-1
 625 0 l 1,11,-1
 625 -4 l 1,12,-1
 -7 -4 l 1,13,-1
 -7 504 l 1,14,-1
 368 504 l 1,15,-1
 368 622 l 1,16,-1
 -7 622 l 1,17,-1
 -7 879 l 1,18,-1
 1000 879 l 1,19,-1
 1000 375 l 1,20,-1
 625 375 l 1,21,-1
 625 250 l 1,8,-1
EndSplineSet
Validated: 1
EndChar
StartChar: ecircumflex
Encoding: 234 234 145
Width: 750
GlyphClass: 1
Flags: W
LayerCount: 2
Fore
SplineSet
250 622 m 1,0,-1
 250 504 l 1,1,-1
 368 504 l 1,2,-1
 368 622 l 1,3,-1
 250 622 l 1,0,-1
118 -4 m 1,4,-1
 118 122 l 1,5,-1
 -7 122 l 1,6,-1
 -7 754 l 1,7,-1
 118 754 l 1,8,-1
 118 879 l 1,9,-1
 500 879 l 1,10,-1
 500 754 l 1,11,-1
 625 754 l 1,12,-1
 625 372 l 1,13,-1
 250 372 l 1,14,-1
 250 254 l 1,15,-1
 625 254 l 1,16,-1
 625 -4 l 1,17,-1
 118 -4 l 1,4,-1
0 875 m 1,18,-1
 118 875 l 1,19,-1
 118 754 l 1,20,-1
 0 754 l 1,21,-1
 0 875 l 1,18,-1
500 879 m 1,22,-1
 625 879 l 1,23,-1
 625 754 l 1,24,-1
 500 754 l 1,25,-1
 500 879 l 1,22,-1
-7 122 m 1,26,-1
 118 122 l 1,27,-1
 118 -4 l 1,28,-1
 -7 -4 l 1,29,-1
 -7 122 l 1,26,-1
0 1125 m 1,30,-1
 250 1125 l 1,31,-1
 250 1000 l 1,32,-1
 0 1000 l 1,33,-1
 0 1125 l 1,30,-1
125 1250 m 1,34,-1
 500 1250 l 1,35,-1
 500 1125 l 1,36,-1
 125 1125 l 1,37,-1
 125 1250 l 1,34,-1
375 1125 m 1,38,-1
 625 1125 l 1,39,-1
 625 1000 l 1,40,-1
 375 1000 l 1,41,-1
 375 1125 l 1,38,-1
EndSplineSet
Validated: 5
EndChar
StartChar: edieresis
Encoding: 235 235 146
Width: 750
GlyphClass: 1
Flags: W
LayerCount: 2
Fore
SplineSet
250 622 m 1,0,-1
 250 504 l 1,1,-1
 368 504 l 1,2,-1
 368 622 l 1,3,-1
 250 622 l 1,0,-1
118 -4 m 1,4,-1
 118 122 l 1,5,-1
 -7 122 l 1,6,-1
 -7 754 l 1,7,-1
 118 754 l 1,8,-1
 118 879 l 1,9,-1
 500 879 l 1,10,-1
 500 754 l 1,11,-1
 625 754 l 1,12,-1
 625 372 l 1,13,-1
 250 372 l 1,14,-1
 250 254 l 1,15,-1
 625 254 l 1,16,-1
 625 -4 l 1,17,-1
 118 -4 l 1,4,-1
0 875 m 1,18,-1
 118 875 l 1,19,-1
 118 754 l 1,20,-1
 0 754 l 1,21,-1
 0 875 l 1,18,-1
500 879 m 1,22,-1
 625 879 l 1,23,-1
 625 754 l 1,24,-1
 500 754 l 1,25,-1
 500 879 l 1,22,-1
-7 122 m 1,26,-1
 118 122 l 1,27,-1
 118 -4 l 1,28,-1
 -7 -4 l 1,29,-1
 -7 122 l 1,26,-1
125 1250 m 1,30,-1
 250 1250 l 1,31,-1
 250 1000 l 1,32,-1
 125 1000 l 1,33,-1
 125 1250 l 1,30,-1
375 1250 m 1,34,-1
 500 1250 l 1,35,-1
 500 1000 l 1,36,-1
 375 1000 l 1,37,-1
 375 1250 l 1,34,-1
EndSplineSet
Validated: 5
EndChar
StartChar: iacute
Encoding: 237 237 148
Width: 500
GlyphClass: 1
Flags: W
LayerCount: 2
Fore
SplineSet
250 997 m 1,0,-1
 -7 997 l 1,1,-1
 -7 1129 l 1,2,-1
 118 1129 l 1,3,-1
 118 1254 l 1,4,-1
 375 1254 l 1,5,-1
 375 1122 l 1,6,-1
 250 1122 l 1,7,-1
 250 997 l 1,0,-1
250 -4 m 1,8,-1
 -7 -4 l 1,9,-1
 -7 879 l 1,10,-1
 250 879 l 1,11,-1
 250 -4 l 1,8,-1
EndSplineSet
Validated: 1
EndChar
StartChar: icircumflex
Encoding: 238 238 149
Width: 625
GlyphClass: 1
Flags: W
LayerCount: 2
Fore
SplineSet
250 997 m 1,0,-1
 -7 997 l 1,1,-1
 -7 1129 l 1,2,-1
 118 1129 l 1,3,-1
 118 1254 l 1,4,-1
 500 1254 l 1,5,-1
 500 1129 l 1,6,-1
 625 1129 l 1,7,-1
 625 997 l 1,8,-1
 368 997 l 1,9,-1
 368 1122 l 1,10,-1
 250 1122 l 1,11,-1
 250 997 l 1,0,-1
375 -4 m 1,12,-1
 118 -4 l 1,13,-1
 118 879 l 1,14,-1
 375 879 l 1,15,-1
 375 -4 l 1,12,-1
EndSplineSet
Validated: 1
EndChar
StartChar: idieresis
Encoding: 239 239 150
Width: 625
GlyphClass: 1
Flags: W
LayerCount: 2
Fore
SplineSet
500 997 m 1,0,-1
 368 997 l 1,1,-1
 368 1254 l 1,2,-1
 500 1254 l 1,3,-1
 500 997 l 1,0,-1
125 997 m 1,4,-1
 -7 997 l 1,5,-1
 -7 1254 l 1,6,-1
 125 1254 l 1,7,-1
 125 997 l 1,4,-1
375 -4 m 1,8,-1
 118 -4 l 1,9,-1
 118 879 l 1,10,-1
 375 879 l 1,11,-1
 375 -4 l 1,8,-1
EndSplineSet
Validated: 1
EndChar
StartChar: ntilde
Encoding: 241 241 151
Width: 750
GlyphClass: 1
Flags: W
LayerCount: 2
Fore
SplineSet
250 -4 m 1,0,-1
 -7 -4 l 1,1,-1
 -7 879 l 1,2,-1
 500 879 l 1,3,-1
 500 754 l 1,4,-1
 625 754 l 1,5,-1
 625 -4 l 1,6,-1
 368 -4 l 1,7,-1
 368 622 l 1,8,-1
 250 622 l 1,9,-1
 250 -4 l 1,0,-1
500 879 m 1,10,-1
 625 879 l 1,11,-1
 625 754 l 1,12,-1
 500 754 l 1,13,-1
 500 879 l 1,10,-1
0 1125 m 1,14,-1
 125 1125 l 1,15,-1
 125 1000 l 1,16,-1
 0 1000 l 1,17,-1
 0 1125 l 1,14,-1
125 1250 m 1,18,-1
 375 1250 l 1,19,-1
 375 1125 l 1,20,-1
 125 1125 l 1,21,-1
 125 1250 l 1,18,-1
250 1125 m 1,22,-1
 500 1125 l 1,23,-1
 500 1000 l 1,24,-1
 250 1000 l 1,25,-1
 250 1125 l 1,22,-1
500 1250 m 1,26,-1
 625 1250 l 1,27,-1
 625 1125 l 1,28,-1
 500 1125 l 1,29,-1
 500 1250 l 1,26,-1
EndSplineSet
Validated: 5
EndChar
StartChar: ocircumflex
Encoding: 244 244 154
Width: 750
GlyphClass: 1
Flags: W
LayerCount: 2
Fore
SplineSet
250 254 m 1,0,-1
 368 254 l 1,1,-1
 368 622 l 1,2,-1
 250 622 l 1,3,-1
 250 254 l 1,0,-1
118 -4 m 1,4,-1
 118 122 l 1,5,-1
 -7 122 l 1,6,-1
 -7 754 l 1,7,-1
 118 754 l 1,8,-1
 118 879 l 1,9,-1
 500 879 l 1,10,-1
 500 754 l 1,11,-1
 625 754 l 1,12,-1
 625 122 l 1,13,-1
 500 122 l 1,14,-1
 500 -4 l 1,15,-1
 118 -4 l 1,4,-1
0 875 m 1,16,-1
 125 875 l 1,17,-1
 125 750 l 1,18,-1
 0 750 l 1,19,-1
 0 875 l 1,16,-1
500 879 m 1,20,-1
 625 879 l 1,21,-1
 625 750 l 1,22,-1
 500 750 l 1,23,-1
 500 879 l 1,20,-1
500 122 m 1,24,-1
 625 122 l 1,25,-1
 625 0 l 1,26,-1
 500 0 l 1,27,-1
 500 122 l 1,24,-1
-7 122 m 1,28,-1
 118 122 l 1,29,-1
 118 -4 l 1,30,-1
 -7 -4 l 1,31,-1
 -7 122 l 1,28,-1
0 1125 m 1,32,-1
 125 1125 l 1,33,-1
 125 1000 l 1,34,-1
 0 1000 l 1,35,-1
 0 1125 l 1,32,-1
125 1125 m 1,36,-1
 250 1125 l 1,37,-1
 250 1000 l 1,38,-1
 125 1000 l 1,39,-1
 125 1125 l 1,36,-1
375 1125 m 1,40,-1
 500 1125 l 1,41,-1
 500 1000 l 1,42,-1
 375 1000 l 1,43,-1
 375 1125 l 1,40,-1
500 1125 m 1,44,-1
 625 1125 l 1,45,-1
 625 1000 l 1,46,-1
 500 1000 l 1,47,-1
 500 1125 l 1,44,-1
125 1250 m 1,48,-1
 500 1250 l 1,49,-1
 500 1125 l 1,50,-1
 125 1125 l 1,51,-1
 125 1250 l 1,48,-1
EndSplineSet
Validated: 5
EndChar
StartChar: odieresis
Encoding: 246 246 156
Width: 750
GlyphClass: 1
Flags: W
LayerCount: 2
Fore
SplineSet
250 254 m 1,0,-1
 368 254 l 1,1,-1
 368 622 l 1,2,-1
 250 622 l 1,3,-1
 250 254 l 1,0,-1
118 -4 m 1,4,-1
 118 122 l 1,5,-1
 -7 122 l 1,6,-1
 -7 754 l 1,7,-1
 118 754 l 1,8,-1
 118 879 l 1,9,-1
 500 879 l 1,10,-1
 500 754 l 1,11,-1
 625 754 l 1,12,-1
 625 122 l 1,13,-1
 500 122 l 1,14,-1
 500 -4 l 1,15,-1
 118 -4 l 1,4,-1
0 875 m 1,16,-1
 125 875 l 1,17,-1
 125 750 l 1,18,-1
 0 750 l 1,19,-1
 0 875 l 1,16,-1
500 879 m 1,20,-1
 625 879 l 1,21,-1
 625 750 l 1,22,-1
 500 750 l 1,23,-1
 500 879 l 1,20,-1
500 122 m 1,24,-1
 625 122 l 1,25,-1
 625 0 l 1,26,-1
 500 0 l 1,27,-1
 500 122 l 1,24,-1
-7 122 m 1,28,-1
 118 122 l 1,29,-1
 118 -4 l 1,30,-1
 -7 -4 l 1,31,-1
 -7 122 l 1,28,-1
125 1250 m 1,32,-1
 250 1250 l 1,33,-1
 250 1000 l 1,34,-1
 125 1000 l 1,35,-1
 125 1250 l 1,32,-1
375 1250 m 1,36,-1
 500 1250 l 1,37,-1
 500 1000 l 1,38,-1
 375 1000 l 1,39,-1
 375 1250 l 1,36,-1
EndSplineSet
Validated: 5
EndChar
StartChar: oslash
Encoding: 248 248 157
Width: 750
GlyphClass: 1
Flags: W
LayerCount: 2
Fore
SplineSet
-7 -4 m 1,0,-1
 -7 754 l 1,1,-1
 0 754 l 1,2,-1
 0 875 l 1,3,-1
 118 875 l 1,4,-1
 118 879 l 1,5,-1
 625 879 l 1,6,-1
 625 0 l 1,7,-1
 500 0 l 1,8,-1
 500 -4 l 1,9,-1
 -7 -4 l 1,0,-1
368 375 m 1,10,-1
 250 375 l 1,11,-1
 250 254 l 1,12,-1
 368 254 l 1,13,-1
 368 375 l 1,10,-1
250 500 m 1,14,-1
 368 500 l 1,15,-1
 368 622 l 1,16,-1
 250 622 l 1,17,-1
 250 500 l 1,14,-1
EndSplineSet
Validated: 1
EndChar
StartChar: ugrave
Encoding: 249 249 158
Width: 750
GlyphClass: 1
Flags: W
LayerCount: 2
Fore
SplineSet
118 -4 m 1,0,-1
 118 122 l 1,1,-1
 -7 122 l 1,2,-1
 -7 879 l 1,3,-1
 250 879 l 1,4,-1
 250 254 l 1,5,-1
 368 254 l 1,6,-1
 368 879 l 1,7,-1
 625 879 l 1,8,-1
 625 122 l 1,9,-1
 500 122 l 1,10,-1
 500 -4 l 1,11,-1
 118 -4 l 1,0,-1
-7 122 m 1,12,-1
 118 122 l 1,13,-1
 118 -4 l 1,14,-1
 -7 -4 l 1,15,-1
 -7 122 l 1,12,-1
500 122 m 1,16,-1
 625 122 l 1,17,-1
 625 0 l 1,18,-1
 500 0 l 1,19,-1
 500 122 l 1,16,-1
125 1125 m 1,20,-1
 375 1125 l 1,21,-1
 375 1000 l 1,22,-1
 125 1000 l 1,23,-1
 125 1125 l 1,20,-1
0 1250 m 1,24,-1
 250 1250 l 1,25,-1
 250 1125 l 1,26,-1
 0 1125 l 1,27,-1
 0 1250 l 1,24,-1
EndSplineSet
Validated: 5
EndChar
StartChar: yacute
Encoding: 253 253 162
Width: 750
GlyphClass: 1
Flags: W
LayerCount: 2
Fore
SplineSet
500 -379 m 1,0,-1
 118 -379 l 1,1,-1
 118 -122 l 1,2,-1
 368 -122 l 1,3,-1
 368 -4 l 1,4,-1
 118 -4 l 1,5,-1
 118 122 l 1,6,-1
 -7 122 l 1,7,-1
 -7 879 l 1,8,-1
 250 879 l 1,9,-1
 250 254 l 1,10,-1
 368 254 l 1,11,-1
 368 879 l 1,12,-1
 625 879 l 1,13,-1
 625 -254 l 1,14,-1
 500 -254 l 1,15,-1
 500 -379 l 1,0,-1
0 -125 m 1,16,-1
 118 -125 l 1,17,-1
 118 -379 l 1,18,-1
 0 -379 l 1,19,-1
 0 -125 l 1,16,-1
-7 122 m 1,20,-1
 118 122 l 1,21,-1
 118 -4 l 1,22,-1
 -7 -4 l 1,23,-1
 -7 122 l 1,20,-1
500 -254 m 1,24,-1
 625 -254 l 1,25,-1
 625 -375 l 1,26,-1
 500 -375 l 1,27,-1
 500 -254 l 1,24,-1
250 1125 m 1,28,-1
 500 1125 l 1,29,-1
 500 1000 l 1,30,-1
 250 1000 l 1,31,-1
 250 1125 l 1,28,-1
375 1250 m 1,32,-1
 625 1250 l 1,33,-1
 625 1125 l 1,34,-1
 375 1125 l 1,35,-1
 375 1250 l 1,32,-1
EndSplineSet
Validated: 5
EndChar
StartChar: OE
Encoding: 338 338 163
Width: 1375
GlyphClass: 1
Flags: W
LayerCount: 2
Fore
SplineSet
250 254 m 1,0,-1
 493 254 l 1,1,-1
 493 997 l 1,2,-1
 250 997 l 1,3,-1
 250 254 l 1,0,-1
118 -4 m 1,4,-1
 118 122 l 1,5,-1
 -7 122 l 1,6,-1
 -7 1129 l 1,7,-1
 118 1129 l 1,8,-1
 118 1254 l 1,9,-1
 625 1254 l 1,10,-1
 625 1129 l 1,11,-1
 750 1129 l 1,12,-1
 750 122 l 1,13,-1
 625 122 l 1,14,-1
 625 -4 l 1,15,-1
 118 -4 l 1,4,-1
0 1250 m 1,16,-1
 118 1250 l 1,17,-1
 118 1129 l 1,18,-1
 0 1129 l 1,19,-1
 0 1250 l 1,16,-1
625 1254 m 1,20,-1
 750 1254 l 1,21,-1
 750 1129 l 1,22,-1
 625 1129 l 1,23,-1
 625 1254 l 1,20,-1
625 122 m 1,24,-1
 750 122 l 1,25,-1
 750 0 l 1,26,-1
 625 0 l 1,27,-1
 625 122 l 1,24,-1
-7 122 m 1,28,-1
 118 122 l 1,29,-1
 118 -4 l 1,30,-1
 -7 -4 l 1,31,-1
 -7 122 l 1,28,-1
750 1250 m 1,32,-1
 1250 1250 l 1,33,-1
 1250 1000 l 1,34,-1
 750 1000 l 1,35,-1
 750 1250 l 1,32,-1
750 750 m 1,36,-1
 1250 750 l 1,37,-1
 1250 500 l 1,38,-1
 750 500 l 1,39,-1
 750 750 l 1,36,-1
750 250 m 1,40,-1
 1250 250 l 1,41,-1
 1250 0 l 1,42,-1
 750 0 l 1,43,-1
 750 250 l 1,40,-1
EndSplineSet
Validated: 5
EndChar
StartChar: oe
Encoding: 339 339 164
Width: 1125
GlyphClass: 1
Flags: W
LayerCount: 2
Fore
SplineSet
250 254 m 1,0,-1
 368 254 l 1,1,-1
 368 622 l 1,2,-1
 250 622 l 1,3,-1
 250 254 l 1,0,-1
625 500 m 1,4,-1
 750 500 l 1,5,-1
 750 625 l 1,6,-1
 625 625 l 1,7,-1
 625 500 l 1,4,-1
625 250 m 1,8,-1
 1000 250 l 1,9,-1
 1000 0 l 1,10,-1
 500 0 l 1,11,-1
 500 -4 l 1,12,-1
 -7 -4 l 1,13,-1
 -7 754 l 1,14,-1
 0 754 l 1,15,-1
 0 875 l 1,16,-1
 118 875 l 1,17,-1
 118 879 l 1,18,-1
 1000 879 l 1,19,-1
 1000 375 l 1,20,-1
 625 375 l 1,21,-1
 625 250 l 1,8,-1
EndSplineSet
Validated: 1
EndChar
StartChar: quotedblleft
Encoding: 8220 8220 167
Width: 750
GlyphClass: 1
Flags: W
LayerCount: 2
Fore
SplineSet
625 747 m 1,0,-1
 368 747 l 1,1,-1
 368 1254 l 1,2,-1
 625 1254 l 1,3,-1
 625 747 l 1,0,-1
250 747 m 1,4,-1
 -7 747 l 1,5,-1
 -7 1254 l 1,6,-1
 250 1254 l 1,7,-1
 250 747 l 1,4,-1
EndSplineSet
Validated: 1
EndChar
StartChar: Euro
Encoding: 8364 8364 98
Width: 1000
GlyphClass: 1
Flags: W
LayerCount: 2
Fore
SplineSet
118 -4 m 1,0,-1
 118 497 l 1,1,-1
 -7 497 l 1,2,-1
 -7 754 l 1,3,-1
 118 754 l 1,4,-1
 118 1254 l 1,5,-1
 875 1254 l 1,6,-1
 875 872 l 1,7,-1
 618 872 l 1,8,-1
 618 997 l 1,9,-1
 375 997 l 1,10,-1
 375 754 l 1,11,-1
 625 754 l 1,12,-1
 625 497 l 1,13,-1
 375 497 l 1,14,-1
 375 254 l 1,15,-1
 618 254 l 1,16,-1
 618 379 l 1,17,-1
 875 379 l 1,18,-1
 875 -4 l 1,19,-1
 118 -4 l 1,0,-1
EndSplineSet
Validated: 1
EndChar
StartChar: trademark
Encoding: 8482 8482 169
Width: 1750
GlyphClass: 1
Flags: W
LayerCount: 2
Fore
SplineSet
875 622 m 1,0,-1
 618 622 l 1,1,-1
 618 1254 l 1,2,-1
 1625 1254 l 1,3,-1
 1625 622 l 1,4,-1
 1368 622 l 1,5,-1
 1368 997 l 1,6,-1
 1250 997 l 1,7,-1
 1250 622 l 1,8,-1
 993 622 l 1,9,-1
 993 997 l 1,10,-1
 875 997 l 1,11,-1
 875 622 l 1,0,-1
375 622 m 1,12,-1
 118 622 l 1,13,-1
 118 997 l 1,14,-1
 -7 997 l 1,15,-1
 -7 1254 l 1,16,-1
 500 1254 l 1,17,-1
 500 997 l 1,18,-1
 375 997 l 1,19,-1
 375 622 l 1,12,-1
EndSplineSet
Validated: 1
EndChar
StartChar: .notdef
Encoding: 65536 -1 0
Width: 500
GlyphClass: 1
Flags: W
LayerCount: 2
Fore
SplineSet
63 0 m 1,0,-1
 63 1125 l 1,1,-1
 438 1125 l 1,2,-1
 438 0 l 1,3,-1
 63 0 l 1,0,-1
125 63 m 1,4,-1
 375 63 l 1,5,-1
 375 1063 l 1,6,-1
 125 1063 l 1,7,-1
 125 63 l 1,4,-1
EndSplineSet
Validated: 1
EndChar
